<?xml version="1.0" encoding="utf-8"?>
<!-- Generator: Adobe Illustrator 26.0.3, SVG Export Plug-In . SVG Version: 6.00 Build 0)  -->
<svg version="1.1" id="Layer_1" xmlns="http://www.w3.org/2000/svg" xmlns:xlink="http://www.w3.org/1999/xlink" x="0px" y="0px"
	 viewBox="0 0 324.7 148.9" style="enable-background:new 0 0 324.7 148.9;" xml:space="preserve">
<style type="text/css">
	.st0{fill:#F65275;}
	.st1{display:none;}
	.st2{display:inline;fill:#FFFFFF;}
	.st3{fill:#FFFFFF;}
</style>
<g id="Back">
	<g id="Layer_9">
		<path class="st0" d="M273.5,14C266.9,4,254.3,3.3,243.6,1.5l-11.3-1.7l-13.1-0.4c-4.4-0.2-8.3-0.9-12.7-0.9
			c-67.2-0.4-17.2,0.4-84.4,2.6C107.6,1.7,93.3,2,78.9,4C72.2,5,64.4,6.8,60.6,12.5c-2.4,3.5-3.1,7.9-3.5,12.1
			c-2.9,29.9-1.5,60.4,4.8,89.8c1.7,7.9,4,16.5,10.3,21.7c5.1,4.4,12.1,5.7,18.9,6.4l129.6-6.6l24.6,12.9l-4.6-25.9
			c13.4-6.7,18.7-25.5,21.8-35.2c4.2-13,6.2-26.8,10.8-39.9C277,37.6,280.1,23.9,273.5,14z"/>
	</g>
</g>
<g class="st1">
	<path class="st2" d="M79.1,20.4c1,0.2,0.2,1.8,0,2.2c-0.5,1.6-1.1,3.3-1.3,4.9c-0.4,2.6,0.3,5.5,2.4,7.2c0.5,0.4,2,1.1,2.1,1.8
		c0,1-1.1,1.4-1.8,1.2c-1-0.3-1.9-1.5-2.6-2.2c-0.8-1-1.3-2-1.7-3.2c-1.1-3.3-0.4-7.6,1.3-10.6C77.8,21.6,78.5,20.3,79.1,20.4
		L79.1,20.4"/>
	<path class="st2" d="M212.5,125c0.1-0.4,0.3-0.7,0.4-1.1c0.1-0.4,0.4-0.4,0.7-0.5c0.4-0.1,0.8-0.2,1.1-0.4c1.1-0.4,2.2-0.9,3.2-1.6
		c0.4-0.4,0.9-0.6,1.3-0.9c0.6-0.4,1.1-0.8,1.7-1.2c0.4-0.4,0.9-0.7,1.2-1.1c0.5-0.5,1-1.1,1.4-1.6c1-1.2,1.9-2.5,2.8-3.8
		c0.4-0.5,0.7-1.1,1.1-1.8c0.6-1.1,1.2-2.1,1.8-3.3c0.6-1.3,1.2-2.6,1.8-4c0.2-0.6,0.4-1.1,1-1.6c0.3,0,0.4,0.3,0.4,0.5
		c0,0.4,0.1,0.7,0,1.1c-0.3,1.1-0.5,2.4-1.1,3.4c-0.4,0.7-0.7,1.4-1,2.2c-0.4,1.1-1.1,2-1.7,3c-0.3,0.4-0.5,1-0.9,1.4
		c-0.4,0.6-1,1.3-1.4,1.9c0,0-0.1,0.1-0.1,0.2c-0.5,0.8-1.1,1.5-1.7,2.3c-0.3,0.4-0.6,0.7-1,1.1c-0.8,0.9-1.8,1.7-2.6,2.4
		c-0.7,0.6-1.5,1.1-2.3,1.7c-0.3,0.2-0.5,0.4-0.9,0.4c-1.1,0.6-2.4,1.1-3.7,1.4c-0.3,0.1-0.5,0.1-0.8,0.2
		C212.8,125.6,212.5,125.5,212.5,125"/>
	<path class="st2" d="M203.4,53.3c0.2-0.4,0.7-1,0.9-1.2c1-1.5,2.1-2.8,3-4.3c0.7-1.2,1.4-2.6,1.9-3.9c0.4-0.9,1.1-2.8,0.6-3.7
		c-0.4-0.8-0.4,0.6-0.7,0.7c-1.4,0.1-0.3-3,0.2-3.7c1-1.8,3.3-1.2,4,0.5c0.7,1.8-0.2,4.9-1,6.6c-1.5,3.3-3.9,5.7-6.3,7.7
		c-0.6,0.5-1.3,1.1-1.9,1.6c-0.3,0.2-0.8,0.4-0.7-0.1C203.4,53.4,203.4,53.3,203.4,53.3"/>
	<path class="st2" d="M99.2,34.2c0,0.7-1.4,1.6-1.8,1.8c-2,1-4.7,0.6-6.2-1.1c-2.3-2.5-1.4-6.1,0.9-8.2c1.3-1.2,2.8-2.1,4.5-2.7
		c1.3-0.4,3.9-1.1,5.3-0.6c1.5,0.6-1.8,2.5-2.2,2.7c-1.7,1-4,1.9-3.9,4.2c0,1.3,1,2.6,2.3,2.9c0.4,0.1,0.6,0.1,1,0.3
		C99.1,33.7,99.2,33.9,99.2,34.2"/>
	<path class="st2" d="M135.1,99.2c2.8-0.4,5.6,0.4,8.4,1c13.5,3.1,27.6,5.5,41.1,2.6c0.6-0.1,1.4-0.2,1.6,0.4
		c0.2,0.6-0.6,1.1-1.2,1.2c-8.3,2-16.8,1.4-25.2,0.3c-4.3-0.5-8.5-1.1-12.9-1.8c-2.1-0.4-11-1.1-11.8-3.3"/>
	<path class="st2" d="M106.2,11.1c0.4-1.1,2.8-0.3,3.5-0.1c1.9,0.6,4,1.1,5.9,1.5c3.3,1,6.6,1.6,10,2.4c3.3,0.8,6.5,1.3,9.9,1.8
		c6.4,0.7,13.3,0.8,19.5-1.1c0.2-0.1,0.4-0.1,0.6,0c0.5,0.1,1.1,0.3,0.9,0.9c-0.2,0.7-1.2,1.1-1.8,1.4c-3.9,1.8-8.5,1.8-12.7,1.7
		c-4.7-0.2-9.2-1-13.8-1.8c-3.9-0.7-7.7-1.5-11.6-2.4c-1.9-0.4-3.9-1-5.8-1.6C109.7,13.3,105.6,12.6,106.2,11.1"/>
	<path class="st2" d="M135.5,119.7c0,0.1,0.1,0.1,0.1,0.2c0.4,1.7-9.2,0.4-10.4,0.3c-4-0.8-7.8-2.3-11.2-4.7c-2-1.4-3.8-3.1-5.9-4.5
		c-1.8-1.1-4.2-2.4-6.4-2.1c-1.6,0.2-3.9,1.4-3.3,3.3c0.1,0.4,2.6,1.8,1,1.8c-2,0-2.9-1.8-2.6-3.7c0.3-2.2,1.7-4.6,3.8-5.5
		c2.4-1.1,5.5-0.8,7.9,0.1c2.8,1,5.2,2.6,7.5,4.5c2.3,1.8,4.5,3.8,6.9,5.5c3.3,2.3,7,3.1,10.8,4.1
		C134.3,119.1,135.2,119.1,135.5,119.7"/>
	<path class="st2" d="M217.8,83.4c-0.4,0.7-1.1,0.2-1.2-0.4c-0.3-0.6,0.1-1.8,0.3-2.4c0.4-1.4,1.4-2.9,2.6-3.8c1.4-1,3.9-0.5,5.4,0
		c1.8,0.6,3.3,1.8,4.3,3.3c1.4,2,1.8,4.7,1.8,7.1c0.2,4.3-0.3,8.7-1.6,12.9c-1.2,4-3.1,7.7-5.5,11.1c-0.6,0.8-1.4,2.2-2.4,2.7
		c-1.5,0.8-0.4-1.3,0-1.8c2.4-3,3.2-7,3.6-10.7c0.6-5.7,0.4-11.4-1.5-16.9c-0.4-0.9-0.7-1.8-1.3-2.5c-0.6-0.7-1.5-1.2-2.5-1.2
		C218.3,81,218.2,82.2,217.8,83.4C217.9,83.3,217.9,83.3,217.8,83.4"/>
	<path class="st2" d="M122.4,65.1c0.2,0.1,0.4,0.2,0.5,0.3c0.4,0.3,0.6,0.7,0.4,1.1c-1.7,2.3-4.9,3.5-7.7,3.8
		c-3.3,0.4-6.6-0.8-9.8-1.6c-3.3-0.9-6.7-1.5-9.8-0.4c-5.7,2.1-6.8,8.5-5,13.6c0.1,0.3,0.2,0.5,0.1,0.7c-0.6,1.4-3.8-1.3-4.1-1.8
		c-1.1-1.4-1.7-3.3-2.1-5.1c-0.8-3.7,0.1-7.3,2.9-10c6.3-5.7,14.4-0.8,21.4,0.5C113.7,67.3,117.9,66.3,122.4,65.1"/>
	<path class="st2" d="M177.6,17.3c0.1,0,0.2,0.1,0.3,0.2c0.2,0.3,0,0.7-0.2,1c-0.3,0.3-0.5,0.4-0.7,0.8c-0.3,0.6,0.3,1.5,1,1.7
		c0.7,0.2,1.4,0,2.1-0.3c1.9-0.8,3.2-2,4.7-3.4c1.5-1.3,3.3-2.5,4.8-3.5c3.4-2.3,7.2-4.1,11.3-5.2c1.6-0.4,3.2-0.8,4.8-1
		c3.7-0.4,7.6,0,10.9,1.7c2.3,1.1,4.3,2.7,5.8,4.8c0.4,0.6,1.6,1.8,1.4,2.6c-0.2,0.8-1.1,0.2-1.5-0.1c-1-0.4-2-0.8-3.1-1.1
		c-4.8-1.6-9.9-2.1-14.9-1.7c-6.7,0.6-13.2,3.2-18.6,7.1c-1.9,1.5-4.1,3.3-6.6,3.4c-1.3,0.1-2.7-0.4-3.5-1.4c-0.8-0.9-0.9-1.9-0.4-3
		c0.4-0.7,1.1-2,1.8-2.5C177.1,17.3,177.3,17.3,177.6,17.3"/>
	<path class="st2" d="M178.1,114.8c-9-0.4-18-3.2-26.3-6.3c-2-0.8-4.1-1.6-6.1-2.5c-0.4-0.2-1.5-0.7-1-1.3c0.6-0.6,1.8-0.2,2.6,0
		c1.1,0.4,2.3,0.7,3.4,1c3.8,1,7.5,1.9,11.4,2.6c8.8,1.6,18,1.7,26.6-0.6c2-0.5,3.9-1.4,5.6-2.6c0.2-0.1,0.4-0.3,0.5-0.4
		c1.4-1.1,4.3-4.1,1.8-5.6c-0.6-0.4-1.4-0.4-2.1-0.1c-0.4,0.2-0.8,0.5-1.1,1c-0.3,0.4-0.4,0.9-0.9,0.8c-0.7-0.1-0.5-1-0.3-1.4
		c2.3-3.7,7.9-6.7,11.9-3.8c3.1,2.3,2.7,6.4,1.1,9.5c-1.8,3.3-5.4,5.2-8.8,6.6C190.7,114.1,184.4,115.1,178.1,114.8"/>
	<path class="st2" d="M172.6,68.9c-1.2-2.5-4.3,1.1-3.5,3.2c0.3,0.5,0.7,1.2,1.2,1.6c1.4,0.9,1.9-1.1,2.3-2.3
		c0.3-0.7,0.4-1.5,0.1-2.2C172.7,69,172.7,68.9,172.6,68.9 M159.4,73.6c-0.5,0-1.2,0.4-1.8,1.1c-1.1,1.3-2,2.9-2.8,4.5
		c-1.2,2.6-2,5.4-2.1,8.2c3.4-3,6.1-7,7.4-11.3C160.5,74.5,160.2,73.6,159.4,73.6 M133.5,69.7c-2.4,0-3.9,7.6-4,8.9
		c0,0.9,0,1.7,0.4,2.5c0.4,0.7,1.2,1.3,2,1.1c0.7-0.1,1.2-0.7,1.7-1.3c2-2.8,2.6-6.5,1.4-9.8c-0.2-0.4-0.4-1-0.9-1.2
		C134,69.8,133.7,69.7,133.5,69.7 M132.7,86.4c-2.1,0.2-4,0.1-5.3-1.8c-1.1-1.5-1.1-3.7-0.9-5.5c0.3-3.2,4-16.4,9.4-11.8
		c0.6,0.5,1.1,1.3,1.4,2c1.2,2.8,1,5.6,0.9,8.6c0,0,0,0.1,0.1,0.1c0,0,0.1-0.1,0.2-0.1c1.5-1.5,2.3-4.1,3-6c0.8-2.1,1.6-4.2,3.1-6
		c1.1-1.2,2.3-2.2,3.6-3.2c1.3-1,2.5-2,3.9-2.7c1.6-0.8,3.1-1,4.8-0.9c0.5,0,2.7,0,1.8,1.1c-2.6,3.1-5.4,6-7.7,9.2
		c-3.5,4.8-5.9,10.6-7.3,16.3c-0.4,1.4-0.6,2.8-0.4,4.3c0,0.4,0.1,0.7,0.4,1c0.3,0.4,0.7,0.4,1.1,0.5c5.2,0.7,2.5-5.6,2.7-8.6
		c0.4-4.7,2.5-9.2,5.9-12.5c3.9-3.6,6.7-2.5,9.6,1.7c0.8,1.1,1.5,2.3,1.6,3.6c0.1,1.5-0.7,2.8-1.6,4.1c-2.7,4.1-6,7.7-9.4,11.3
		c0.7,0.8,2.1,0.7,3.1,0.3c1-0.4,1.8-1,2.5-1.7c2.3-1.9,4.3-4.1,6.2-6.4c1-1.1,1.8-2.4,2.6-3.6c1.6-2.5-2.5-4.1-3-6.8
		c-0.6-3.3,1.2-7.3,4.8-7.7c2.2-0.3,4.5,1,5.5,2.8c1.9,3.3-2.2,5.8-1.1,8.5c0.7,1.9,2.6,3.3,3.4,5.3c1.8,4.1,2.1,9.9-0.5,13.7
		c-2.9,4.3-10.6,5-12.9-0.4c-1-2.1-0.6-7,2.2-7.6c0.7-0.2,1.4-0.1,2.2-0.1c0.1,0.2,0.3,0.3,0.4,0.4s0.1,0.4-0.2,0.5
		c-1.3,0.8-2.4,2.2-1.5,3.8c1.1,1.8,3.7,1.3,5.1,0.1c1.4-1.2,2.2-3.1,2.4-4.9c0.2-2.5-0.8-5.1-2.8-6.5c-1.9-1.3-3.3,2.6-4.2,3.8
		c-1.8,2.5-3.9,4.8-5.9,7.1c-0.9,1-1.8,2-2.9,2.6c-1.1,0.7-2.5,1-3.8,1c-1.6-0.1-2.6-1.1-4-1.5c-2-0.4-6,2.6-8.5,3.2
		c-0.7,0.2-1.5,0.3-2.3,0.1c-1.8-0.4-2.8-2.4-3-4.2c-0.3-2.4,0-5.2,0.4-7.6c0.1-0.4,0.7-2.1,0-2.3c-0.4,0.9-0.6,1.7-1,2.6
		c-1.1,2.8-2.3,5.8-4.4,8c-2,2-5,3.3-7.9,3c-2.9-0.3-5.6-2.1-6.8-4.8c-0.4-1.1-0.6-2.2-0.7-3.3c-0.4-4.7,0.5-9,2.3-13.3
		c0.3-0.7-1.4,0.4-1.6,0.4c-4.1,1.8-14.6,0.2-14.4,6.5c0.1,1.1,0.4,2.4,1.3,3.1c1,0.6,2.5,0.8,3.2-0.3c0.4-0.7-0.4-2.6,0.4-2.8
		c0.9-0.4,1.8,1.1,2,1.7c0.4,1,0.4,2.1,0.1,3.2c-0.8,1.9-2.8,3.5-4.8,4c-3.3,0.8-7.1-0.5-9.7-2.7c-0.2-0.2-0.4-0.3-0.5-0.4
		c-3.6-3.3-4.1-8.8-1.8-13.1c1.5-2.8,3.8-4.8,7-5.2c2.9-0.4,5.9,1.8,8.7,2.4c2.9,0.6,5.9,1,8.8,0.4c3.1-0.5,5.6-3.3,7.9-5.4
		c1.3-1.2,1.1-1.3,2.9-0.3c0.1,0.1,0.3,0.2,0.4,0.3c0.2,0.2,0.2,0.4,0.1,0.6l0,0c-1.9,2.2-2.6,5.8-3.4,8.5c-0.7,2.5-1.3,5.1-1.4,7.7
		c-0.2,2.6-0.4,8.3,3.6,8c0.9-0.1,1.8-0.5,2.5-1.1c1.1-1.1,1.9-2.6,2.6-4.1C132.7,86.6,132.7,86.5,132.7,86.4"/>
	<path class="st2" d="M176.7,52.3c0.2-0.1,0.2-0.1,0.3-0.2c0.9-0.9,1.8-1.6,2.6-2.5c0.2-0.2,0.4-0.4,0.5-0.6
		c0.4-0.4,0.7-0.8,1.1-1.1c0.5-0.6,0.9-1.2,1.3-1.8c0.6-0.9,1.2-1.8,1.8-2.8c0.4-0.7,0.9-1.4,1.2-2.1c0.4-0.9,0.8-1.8,1.1-2.7
		c0.1-0.4,0.2-0.7,0.3-1c0-0.4,0-0.8-0.4-1.1c-0.2,0.1-0.3,0.2-0.4,0.4c-0.4,0.4-0.7,0.8-1.1,1.2c-0.2,0.2-0.4,0.4-0.6,0.6
		c-0.6,0.8-1.2,1.5-1.8,2.3c-0.6,0.8-1.3,1.6-1.9,2.5c-0.4,0.5-0.8,1.1-1.1,1.8c-0.4,0.6-0.9,1.3-1.1,1.9c-0.5,1.1-1,2.1-1.3,3.2
		c-0.2,0.6-0.3,1.1-0.3,1.8C176.6,52,176.6,52.1,176.7,52.3 M191.4,54.9c0.4-0.3,0.8-0.5,1.1-0.8c0.4-0.3,0.8-0.5,1.1-1
		c0.3-0.4,0.5-0.7,0.7-1.1c0.3-0.4,0.4-0.8,0.6-1.1c0.4-1,0.8-2,1.2-3c0.3-0.6,0.4-1.2,0.6-1.8c0.5-1.2,1.1-2.5,1.7-3.8
		c0.2-0.4,0.4-0.9,0.6-1.4c0.6-1.2,1.1-2.6,1.8-3.8c0-0.1,0.1-0.2,0.1-0.4c-0.7,0.3-1.1,0.7-1.6,1.1c-0.5,0.4-1,0.8-1.5,1.2
		c-0.4-0.2-0.5-0.4-0.5-0.7c0-0.3-0.1-0.6-0.1-0.9c0-0.1-0.1-0.2-0.2-0.3c-0.4,0-0.5,0.2-0.7,0.4c-0.3,0.3-0.5,0.6-0.8,1
		c-0.4,0.5-0.7,1.1-1.1,1.6c-0.7,1.1-1.5,2.3-2,3.5c-0.4,1-0.8,1.8-1.1,2.7c-0.4,0.8-0.6,1.5-0.9,2.4c-0.2,0.4-0.3,1-0.4,1.5
		c-0.1,0.9-0.2,1.8-0.3,2.7c-0.1,0.5,0.2,1.1,0.4,1.5c0.1,0.1,0.2,0.2,0.4,0.4C190.4,54.9,191.4,54.9,191.4,54.9z M194.9,58.5
		c-0.1,0.1-0.5,0.5-0.5,0.5c-2.7,2.6-7.3,3.2-9.4-0.4c-0.7-1.2-2.1,1.1-2.7,1.6c-3.1,2.3-7,1.5-9.6-1.1c-0.8-0.8-1.8-0.1-2.6,0.3
		c-1.9,0.8-4.3,2.3-6.5,2.3c-2.3-0.1-2.2-2.6-2-4.2c0.1-1.2,0.4-2.6,0.5-3.8c0.5-2.5,1.3-5,2.6-7.3c0.4-0.8,2.1-2.7,0.6-3.3
		c-0.7-0.3-1.4-0.1-2.1-0.4c-0.7-0.3-1.3-0.8-1.8-1.4c-1-1.5-0.9-3.4-0.6-5.2c0.4-2.2,1.1-4.5,2.6-6.3c1.1-1.2,2.6-2.1,4.3-2.2
		c0.5,0,1.8,0,2,0.6c0.3,1.1-1.2,2.6-1.7,3.5c-0.5,1.1-1.8,3.6-0.9,4.7c0.9,1.1,1.9-0.4,2.5-1.2c0.4-0.8,1.1-2,2.2-1.4
		c1.1,0.7,1.9,1.8,2.5,3c0.7,1.2-0.2,2-0.8,3.2c-1.3,2.2-2.6,4.4-3.7,6.7c-0.8,1.6-1.4,3.3-2,4.9c-0.5,1.5-1.5,3.3-1.1,4.9
		c0.3,1.5,3.3,0.7,4.1,0.3c1.1-0.7,0.4-1.8,0.4-2.9c-0.4-7,4.1-13.8,8.5-18.8c1.4-1.5,3.1-3.1,5.1-3.3c1.5-0.2,3.1,0.4,4.1,1.5
		c1.6,1.7,1.6,4.2,1.1,6.3c-0.4,1.5-1.1,2.9-1.9,4.2c-1.6,2.6-3.4,5.1-5.5,7.4c-0.5,0.6-1.1,1.3-1.8,1.8s-1.5,1-2.1,1.6
		c-0.4,0.4-0.7,0.8-0.8,1.3c0,0.6,0.4,1.2,1,1.4c0.5,0.3,1.2,0.2,1.8,0c1.4-0.5,2.4-1.6,3.3-2.7c1.8-2.4,2.5-5.2,3.6-7.9
		c1.1-2.6,2.4-5,3.7-7.4c0.6-1.1,1.3-2,2-3.1c0.7-1.1,1.1-2.3,2.1-3.2c1.1-0.9,2.6-1.3,3.8-0.6c1.4,0.9,1.2,2.5,2.1,3.5
		c0.7,0.8,0.9,0,1.2-0.6c0.4-0.7,0.6-1.4,1-2c0.2-0.4,0.4-0.6,0.6-0.8c0.4-0.2,0.7-0.1,1,0.1c0.5,0.4,1.1,0.9,1.7,1.3
		c0.5,0.4,1.1,0.8,1.3,1.4c0.2,0.5-0.3,1.1-0.5,1.6c-0.4,0.5-0.7,1.1-1,1.7c-0.7,1.2-1.3,2.5-1.8,3.8c-0.9,2-1.7,4.1-2.4,6.3
		c-0.6,1.8-1.7,4.2-1,6.2c1.4,3.7,8.5-3.3,9.7-4.6c2.6-2.5,4.5-5.6,5.2-9.1c1.6-7.5-3.8-15-10.8-17.1c-2.9-0.9-5.8-0.8-8.7-0.1
		c-2.9,0.7-5.7,1.5-8.4,2.8c-3.3,1.7-6.8,4.1-10.7,4.3c-5.8,0.4-10.4-6-7-11c1.1-1.6,2.6-2.4,4.4-2.6c0.4,0,1.4-0.1,1.1,0.5
		c-0.2,0.4-0.8,0.7-1.1,1c-0.4,0.4-0.6,0.7-0.8,1.1c-1.7,3.1,1,6.7,4.4,5.6c6.3-1.8,11.5-5.6,17.7-7.7c5.2-1.8,11-3.1,16.6-2.6
		c5,0.4,9.5,2.7,13,6.3c5.6,5.8,7.5,14.4,5.9,22.3c-0.5,2.6-1.5,5.2-2.8,7.5c-1.5,2.7-3.4,5.4-5.9,7.4c-2.7,2.2-6.1,3.6-9.5,4.3
		c-4.4,1-9,0.8-13.3-0.6C198.2,61.5,196,60.4,194.9,58.5C194.9,58.4,194.9,58.4,194.9,58.5"/>
	<path class="st2" d="M141.1,57.1c0.4,0.3,1.1,0.3,1.8-0.2c0.6-0.4,1.1-1,1.5-1.6c1.7-2.4,3-4.8,4-7.5c0.5-1.4,1.1-2.8,1.3-4.3
		c0.2-1.2,2.1-5.4,1.6-6.3c-0.5-1.1-3.9-0.4-3-1.5c-4.4,5.2-7.3,11.7-8.2,18.5C140.1,55.1,140.3,56.5,141.1,57.1 M117.4,61.7
		L117.4,61.7c-0.2,0-1,0.4-1,0.5c0,0.6-2.6,0.8-3,0.7c-1.1-0.1-2.1-0.4-3-1.1c-0.9-0.7-1.2-1.6-1.8-2.6c-0.4-0.7-0.7-0.3-1.1,0.3
		c-0.4,0.4-0.7,1-1.1,1.4c-2.4,2.5-6.6,2.1-9.2,0.2c-4.4-3.3-3.4-9.6-2.1-14.1c2.3-7.7,6.2-15.1,11.4-21.3c0.7-0.9,1.4-2,2.5-2.6
		c0.1-0.1,1,0.3,1.1,0.3c0.6,0.1,1.2,0.3,1.8,0.4c1.2,0.3,2.4,0.5,3.6,0.8c0.2,0,0.4,0.1,0.6,0.3c0.9,0.6-0.4,2.5-0.6,3.2
		c-0.9,2.2-1.8,4.5-2.6,6.7c-0.4,1.1-0.9,2.2-1.3,3.3c-0.5,1.5-2,1.9-3.3,1.1c-1.9-1.3-0.9-2.9-0.3-4.6c0.2-0.4,1.3-2.7,0.9-3.1
		c-0.4-0.3-1.9,2.9-2.1,3.3c-0.8,1.5-1.5,3-2.2,4.5c-1.3,3-2.6,6-3.5,9.2c-0.9,2.6-3.2,10.7,2.1,10.4c2.7-0.1,3.8-4.1,4.7-6.1
		c1.8-4.1,3.3-8.5,4.6-12.8c0.6-2.2,1.1-4.4,1.7-6.6c0.2-0.7,0.2-1.9,1-2.4c1.1-0.5,2.9,0.4,3.8,1.1c0.6,0.5,1,1.1,0.6,1.8
		c-0.4,1.1-0.9,2-1.3,3.1c-1.4,3.4-2.6,7-3.5,10.7c-0.5,1.9-2.7,8.1-0.7,9.6c0.9,0.6,2,0.5,2.9-0.1c1.4-1.1,1.7-4,1.9-5.6
		c0.4-2.6,0.8-5.2,1-7.7c0.4-3.3,1.1-6.8,0.8-10c-0.1-0.7-0.3-1.3,0.5-1.5c1-0.2,2.2,0.1,3.2,0.2c0.5,0,1.4,0,1.6,0.6
		c0.3,0.5,0.1,1.9,0.1,2.6c0,0.2,0,0.4,0,0.5c0.2,0,0.2-0.1,0.3-0.2c1.4-3.2,3.9-6.3,6.3-8.7c0.8-0.8,2-0.3,2.9,0
		c1.2,0.4,2.5,1,3.7,1.5c0.3,0.1,0.5,0.3,0.8,0.4c1,1-0.8,3.7-1.1,4.7c-1.3,3.8-2.6,7.7-3.9,11.4c-0.8,2.5-1.8,4.8-2.3,7.4
		c-0.2,1.1-1,6.7,1.8,5c0.6-0.4,1-1.1,1.1-1.8c0.3-1.8,0.1-3.4,0.4-5.2c0.6-4.1,2-8,4.1-11.6c1.6-2.7,3.4-5.5,6.3-7
		c1-0.4,2-0.7,3.1-0.5c0.6,0.1,1.2,0.4,1.8,0.9c0.6,0.6,0.7,1.1,1.1,0c0.6-1.5,1-3.2,1.6-4.7c0.4-0.8,0.7-1.6,1.1-2.4
		c0.4-0.8,1-1.7,1.2-2.6c0,0.1-1.1,0.4-1.3,0.5c-0.7,0.4-1.4,0.6-2.1,0.9c-8.3,3.3-17.3,2.5-26,1c-8.1-1.4-16.1-3.5-24.4-3.6
		C97,21.6,89.5,23.1,88,29.6c-0.5,2.3,0.1,4.9,1.8,6.6c1,1,2.3,1.5,3.6,1.6c1.5,0.1,2.6-0.6,4.1-0.9c0.4-0.1,0.6-0.1,1,0
		c0.7,0.3-1.9,2.6-2.3,2.7c-3,1.8-6.9,0.9-9.5-1c-2.7-1.8-4.5-4.8-5.1-8c-0.9-4.7,0.6-9.8,4.1-12.9c3-2.8,7-4.2,11.1-4.4
		c2.7-0.1,5.5,0.4,8.2,1.2c4.2,1.4,8.4,3.1,12.7,4.3c4.4,1.2,9,2.1,13.6,2.6c5.8,0.7,12.2,1.2,18,0c3-0.6,5.8-1.8,8.1-3.9
		c0.7-0.6,1.4-1.4,2.4-1.7c1.2-0.4,1.9,0.4,2.8,1.1c0.9,0.7,1.8,1.3,2.7,2c0.9,0.7,1.1,1.1,0.4,2.1c-4.1,6.5-7.4,13.4-9.9,20.7
		c-1,2.8-1.7,5.6-2.4,8.5c-0.2,1-0.4,2.2,0,3.1c0.6,1,1.9,1.1,2.8,0.4c0.6-0.6,0.9-1.6,1.1-2.4c0.5-2.2,1.1-4.4,1.7-6.6
		c0.1-0.4,0.2-0.7,0.4-1c0.2-0.3,0.6-0.4,1-0.4c0.4,0.1,0.5,0.4,0.5,0.8c0,0.4,0,0.6-0.2,1c-0.6,2.1-1.1,4.2-1.8,6.4
		c-0.5,1.8-1.2,4-2.8,5.2c-1.8,1.4-4.8,0.8-5.9-1.2c0.4,0.5-3.5,4.2-4.1,4.7c-2,1.6-5,2.5-7.4,1.3c-1.2-0.6-1.8-1.9-3.2-0.7
		c-2.1,1.9-5.7,2.1-7.7-0.3c-2.5-3.2-0.8-7.9,0.3-11.4c1.4-4.3,2.7-8.6,4.1-13c0.1-0.3,0.1-0.7-0.2-0.8c-0.3-0.1-0.4,0.2-0.5,0.4
		c-5,7-7.7,15.6-7.5,24.1c0,1,0.1,2-1,2.6c-0.7,0.4-1.5,0.4-2.3,0.3c-1-0.2-2-0.2-2.9-0.5C117.9,61.9,117.7,61.8,117.4,61.7"/>
	<path class="st2" d="M198.9,80.5L198.9,80.5L198.9,80.5L198.9,80.5z M198.7,80.9L198.7,80.9L198.7,80.9L198.7,80.9z M192.6,74.9
		c0,0.3,0,0.4,0,0.5c0.1,0.6,0.4,1.2,1.1,1.5c1.7,1,2.8-1,3.3-2.2c0.4-1.4,0.5-2.9,0.3-4.3c-0.2-1-0.9-3.3-2.3-2.6
		c-0.7,0.3-1.1,1.1-1.3,1.8C192.9,71.2,192.6,73.2,192.6,74.9 M215.8,94.9L215.8,94.9c-1.5,1.8-3.9,3-6.3,2.9
		c-0.7,0-1.5-0.2-2.1-0.5c-1.1-0.7-1.6-2.2-1.8-3.6c-0.3-2.8,0.6-5.6,1.7-8.2c1.2-3,2.7-5.9,4.2-8.7c0.8-1.4,1.5-2.9,2.3-4.3
		c0.4-0.9,1.3-2,1.1-3.1c-0.3-1.1-1.5-1.6-2.5-1.1c-0.6,0.3-1,0.9-1.3,1.4c-2.2,3.6-3.9,7.5-5,11.5c-0.6,2-1,4.1-1.3,6.3
		c-0.2,1.1-0.3,2.1-0.4,3.2c-0.1,1,0,0.7-0.2,1.8c-0.1,0.4-0.1,0.8-0.4,1.1c-0.6,0.6-1.7-0.6-2-1c-0.3-0.3-0.5-0.6-0.9-0.9
		c-0.6-0.4-1.4-0.6-2.1-1.1c-0.7-0.4-1.1-1-1.5-1.7c-0.3-0.8,0.1-1.5,0.2-2.3c0.2-1,0.4-1.8,0.5-2.7c0.1-0.4,0.4-1,0.3-1.4
		c-0.2-0.6-0.4-0.1-0.6,0.3c-0.9,2.3-1.7,4.5-3.3,6.4c-2.8,3.3-9.9,8-13.2,2.9c-0.8-1.2-1.1-2.6-1.4-4.1c-0.5-3.1-0.7-6.3-0.4-9.4
		c0.2-2.8,0.4-6.4,2-8.9c0.8-1.1,7.7-5.5,8.6-3.5c0.4,0.9-1,2.6-1.4,3.4c-0.7,1.4-1.2,2.8-1.7,4.2c-0.9,2.9-1.3,6-1.3,9.1
		c0,1.8,0.4,4.1,2.2,4.9c1.4,0.7,3.1,0.2,4.2-0.9c1-0.9,1.5-1.9,2-3.1c0.3-0.4,1-2.1,0.4-2.4c-0.4-0.2-0.9,0.4-1.2,0.4
		c-3.1,0.6-4.8-2.5-4.9-5c-0.2-2.5,0.4-5.2,1.4-7.5c0.6-1.3,1.4-2.6,2.6-3.4c1.1-0.9,2.6-1.3,4.1-0.9c1.8,0.5,2.2,2.1,2.6,3.7
		c0.1,0.4,0.8,3.9,1.1,3.8c0.8-0.1,1.1-1.9,1.3-2.5c0.2-0.6,0.4-1.2,0.6-1.8c0.4-0.9,0.9-1.7,1.7-2.3c0.6-0.4,1.5-0.5,2.3-0.5
		c0.2,0,0.3,0,0.4,0c1,0,1.8,0.8,1.9,1.8c1.9-1.8,3.7-3.2,6.7-2.7c2.1,0.4,3.6,2.2,4.2,4.1c1.1,4-1.9,6-3.6,9.2
		c-0.9,1.8-1.8,3.6-2.6,5.5c-0.7,1.8-2.3,4.5-1.8,6.4c0.5,2.4,4.4-2.4,4.9-2.8c0.8-0.5,1.8-0.8,2.6-0.5c1,0.4,1.6,1.2,2,2.1
		c1.3,2.6,1.6,5.2,1.6,8c0,9.8-3.3,20.3-11.7,26.1c-2.2,1.6-4.7,2.6-7.3,3.3c-2.6,0.8-5.5,1.2-8.2,1.4c-6.3,0.4-12.4-0.7-18.6-2
		c-13.3-2.7-26.5-6-39.5-10.1c-6.7-2.1-13.2-4.7-19.5-7.9c-2-1.1-4.1-2.2-6.1-3.3c-1.9-1-4.2-2.1-6.4-2.1c-4.1,0-7.8,2.8-9.5,6.3
		c-1.1,2.4-1.5,5.5-0.9,8c0.7,2.8,4,5.6,7,4.2c1.5-0.7,3.3-3.3,1.3-4.5c-0.4-0.2-1.2-0.6-0.5-1.1c1.3-0.9,3.3,0.5,4.1,1.7
		c1,1.6,1,4,0.4,5.6c-0.9,2.3-2.8,3.4-4.9,4.4c-2.6,1.2-5.6,1-8.4,0.3c-3.7-1-7-3.2-9-6.4c-4-6.1-2.7-14.3,0.7-20.3
		c3.2-5.5,9.1-7,15.1-7c5.6,0,11.2,1.4,16.5,3.3c3.4,1.2,6.8,2.7,10.1,4.2c5.6,2.6,11.4,4.5,17.1,7c5.5,2.5,11.4,4.1,17.3,5.7
		c4.5,1.2,9.1,2.2,13.7,3c10.1,1.7,23.2,2.9,31.5-4.3c3-2.6,5-6.1,6.6-9.7C214.7,100.7,216.7,97.3,215.8,94.9"/>
</g>
<g>
	<path class="st3" d="M186.3,81c0.2,0.8,0.6,1.1,1.4,1.2c1,0.1,2-0.1,2.9-0.4c1.9-0.6,3.5-1.7,5.1-2.8c1.5-1.1,3-2.3,4.2-3.7
		c1.9-2.1,3-4.6,3.7-7.4c0.4-1.5,0.8-3.1,1.2-4.6c0.1-0.3,0.2-0.6,0.3-0.9c0.2-0.6,0.6-1,1.2-1.3c1.7-0.9,3.5-1.9,5.1-2.9
		c0.7-0.4,1.4-0.3,2-0.4c0.2,0,0.4,0.2,0.6,0.3c-0.1,0.3-0.2,0.6-0.4,0.9c0.4,0.5,0.8,0.9,1.3,1.5c-0.5,0-0.6-0.3-0.9-0.5
		c-0.3-0.2-0.5-0.4-0.9-0.3c-0.4,1-0.9,2-1.3,3c-0.4,0.8-0.7,1.7-1.1,2.5c-0.6,1.2-0.9,2.5-1.2,3.8c-0.3,1.8-0.7,3.7-0.7,5.5
		c0,1.7,0.3,3.2,1.1,4.7c0.4,0.8,0.7,1.5,1.4,2.1c0.5,0.5,1.1,0.7,1.8,0.7c1.3,0,2.6-0.4,3.5-1.4c1.1-1,2.1-2.2,3.1-3.3
		c0.3-0.3,0.5-0.6,0.7-0.9c0.2-0.3,0.4-0.5,0.7-0.9c-1.1-0.1-2-0.1-2.9-0.2c-0.7-0.1-1.5-0.2-2.2-0.4c-1.4-0.5-2.2-1.6-2.6-3
		c-0.4-1.4-0.5-2.9-0.3-4.4c0.2-2.3,1-4.5,2.2-6.5c1-1.7,2.2-3.4,3.6-4.8c1.1-1.2,2.8-1.3,4.2-0.6c1.2,0.7,2.3,1.5,3.1,2.6
		c0.7,0.9,1,2.1,1.3,3.2c0.6,2.2,0.4,4.4,0.1,6.6c0,0.3-0.1,0.5-0.1,0.9c0.5-0.2,0.9-0.3,1.3-0.4c0.4-0.1,0.8-0.2,1.2-0.4
		c2.4-1.1,4.8-2.2,7.2-3.2c0.6-0.3,1.3-0.5,2-0.7c0.4-0.1,0.6,0,0.8,0.3c0.2,0.3,0.4,0.7,0.5,1.1c0.2,0.7,0.3,1.4,0.3,2.1
		c0,1.5,0,3.1,0,4.6c-0.1,2.8-0.7,5.6-1.2,8.4c-0.6,3.8-1.6,7.5-2.5,11.3c-0.1,0.2-0.1,0.5-0.1,0.7c-0.1,1.2-0.5,2.3-1,3.4
		c-0.8,1.6-1.4,3.2-2.2,4.8c-0.5,0.9-1.1,1.8-1.8,2.7c-1.3,1.7-2.7,3.3-4.1,4.9c-0.8,0.9-1.6,1.7-2.5,2.5c-0.5,0.4-1.1,0.7-1.7,0.9
		c-2.2,0.9-4.5,1.9-6.8,2.8c-0.8,0.3-1.6,0.6-2.4,0.9c-0.5,0.2-1,0.3-1.5,0.4c-2.4,0.6-4.8,0.6-7.2,0.8c-2.3,0.2-4.6,0-6.9,0
		c-0.6,0-1.2,0-1.8,0c-3.6,0.3-7.1,0.2-10.7-0.2c-3-0.4-5.9-0.6-8.9-0.9c-1.9-0.2-3.7-0.6-5.5-1.2c-0.6-0.2-1.2-0.3-1.8-0.4
		c-1.3-0.3-2.7-0.5-4-0.8c-1.4-0.3-2.7-0.6-4.1-0.9c-1.6-0.4-3.1-0.8-4.7-1.1c-3.1-0.7-6.3-1.3-9.4-1.9c-1.7-0.3-3.3-0.7-5-1.1
		c-3.1-0.7-6.1-1.6-9.1-2.6c-2-0.7-4.1-1.4-6.1-2.1c-2.3-0.8-4.5-1.5-6.8-2.2c-2.6-0.8-5.2-1.5-7.8-2.2c-1.2-0.3-2.3-0.7-3.5-1
		c-3-0.8-5.9-1.3-9-1.2c-0.8,0-1.6,0.1-2.3,0.2c-0.6,0.1-1.2,0.3-1.7,0.6c-0.6,0.4-1.4,0.5-2.1,0.7c-1.2,0.5-2.3,0.9-3.3,1.8
		c-0.8,0.7-1.4,1.5-2,2.4c-0.9,1.5-1.8,2.9-2.4,4.6c-0.1,0.4-0.2,0.9,0,1.3c0.4,1.3,1.1,2.5,1.9,3.6c0.4,0.6,1,1,1.7,1.1
		c0.6,0.1,1,0,1.5-0.3c1.1-0.9,1.9-2,2.2-3.4c0-0.2,0.1-0.4,0.2-0.7c0.6,0,0.8,0.3,0.9,0.7c0.3,1.1,0.4,2.3,0,3.4
		c-0.6,1.7-1.6,3.2-3,4.4c-0.7,0.7-1.7,1.1-2.7,1.2c-1.8,0.1-3.7,0.2-5.5-0.4c-2.2-0.7-4.5-1.4-6.4-2.9c-1.1-0.9-1.9-1.9-2.5-3.2
		c-0.2-0.4-0.4-0.8-0.7-1.2c-1.1-1.5-1.9-3.2-2.3-5c-0.4-1.5-0.4-3.1-0.1-4.7c0.4-1.9,0.9-3.7,1.9-5.4c0.7-1.2,1.5-2.3,2.5-3.3
		c2-1.9,4.4-3.2,6.8-4.4c3-1.4,6.1-1.7,9.3-1.6c1.5,0,3.1,0.1,4.6,0.2c2.1,0.1,4.2,0.5,6.3,0.9c2.3,0.4,4.5,1.1,6.7,1.5
		c1.6,0.3,3.3,0.6,4.9,0.9c0.8,0.2,1.5,0.4,2.3,0.6c0.9,0.2,1.8,0.4,2.8,0.6c0.6,0.2,1.3,0.3,1.9,0.5c3.4,1.1,6.8,2.2,10.1,3.4
		c2.4,0.9,4.9,1.5,7.5,2.2c1.9,0.5,3.8,0.8,5.7,1.2c3,0.7,6,1.3,8.9,2.1c2.6,0.7,5.3,1.1,8,1.5c2.8,0.4,5.6,0.6,8.4,1.1
		c3,0.6,6.1,0.9,9.1,1.5c0.6,0.1,1.3,0.1,2,0.2c3.9,0.2,7.7,0.5,11.6,0.7c3.3,0.2,6.5,0.1,9.8-0.3c1.7-0.2,3.5-0.6,5.2-0.9
		c0.5-0.1,1-0.2,1.5-0.3c0.8-0.3,1.6-0.6,2.4-0.9c1-0.4,2-0.8,3-1.3c1.6-0.7,3-1.6,4.4-2.6c1.8-1.3,3.5-2.8,5-4.4
		c0.4-0.4,0.9-0.9,1.2-1.4c1.2-1.6,2.6-3.1,3.6-5c0.8-1.6,1.5-3.1,2.3-4.7c0-0.1,0.1-0.2,0.1-0.3c0.4-2,1.3-3.7,1.9-5.6
		c0.5-1.7,0.5-3.4,0.2-5.1c-0.1-0.4-0.4-0.8-0.7-1.2c-0.1-0.1-0.4-0.1-0.6-0.1c-0.4,0.1-0.9,0.2-1.3,0.4c-1.8,0.7-3.7,1.5-5.5,2.3
		c-0.3,0.1-0.5,0.4-0.7,0.7c-0.7,1.3-1.4,2.6-2.2,3.9c-0.6,1.1-1.3,2.1-2,3.2c-1.1,1.6-2.5,2.9-4.1,4.1c-2.3,1.6-4.9,2.2-7.6,2.5
		c-1.3,0.2-2.6,0.1-3.9-0.2c-1.5-0.5-2.8-1.3-3.6-2.8c-0.6-1.1-1.2-2.2-1.3-3.5c0-0.5-0.1-1.1-0.1-1.7c-0.2,0.1-0.3,0.1-0.4,0.2
		c-1.8,1.3-3.6,2.7-5.5,3.9c-0.9,0.6-2,1.1-3,1.6c-0.9,0.4-1.7,0.9-2.6,1.2c-1.6,0.6-3.2,1.2-4.8,1.5c-2.3,0.5-4.5,0-6.4-1.4
		c-0.3-0.2-0.5-0.6-0.7-0.9c-0.1-0.2-0.2-0.5-0.3-0.8c-0.8,0.3-1.6,0.6-2.4,1c-2,1-4.1,1.5-6.3,1.7c-1.2,0.1-2.5,0.1-3.7-0.1
		c-1.8-0.3-2.9-1.5-3.5-3.2c-0.8-2.4-1-5-0.5-7.5c0.6-3.4,1.6-6.7,2.7-9.9c0.6-1.8,1.2-3.6,1.9-5.4c0.6-1.4,1.3-2.7,2-4.1
		c1.2-2.3,2.4-4.5,3.6-6.8c0.8-1.3,1.6-2.6,2.4-3.9c0.2-0.3,0.4-0.7,0.5-1.2c-0.2,0.1-0.3,0.1-0.5,0.2c-1.7,0.8-3.4,1.4-5.2,1.9
		c-1.4,0.4-2.9,0.8-4.3,1.1c-2.1,0.5-4.2,0.6-6.4,0.4c-0.9-0.1-1.7-0.2-2.6-0.3c-1.4-0.3-2.9-0.6-4.3-0.9c-2.1-0.4-4.3-0.7-6.4-1.1
		c-1.8-0.3-3.5-0.7-5.2-1c-2.6-0.4-5.3-0.8-7.9-1.2c-1.6-0.2-3.2-0.5-4.8-0.8c-2.8-0.5-5.6-0.9-8.4-1.4c-1-0.2-2-0.5-3-0.6
		c-1.7-0.2-3.4-0.5-5.1-0.6c-2.4-0.2-4.7-0.4-7.1-0.5c-2.2-0.1-4.4-0.1-6.5,0.1c-3.1,0.3-6,1.3-8.7,2.8c-0.9,0.5-1.7,1.2-2.5,1.8
		c-0.8,0.6-1.5,1.2-2.3,1.8c-0.6,0.5-1.2,1-1.5,1.8c-0.1,0.3-0.4,0.6-0.7,0.8c-1,0.9-1.4,2.1-1.4,3.4c0,0.7,0,1.5,0.1,2.2
		c0,0.4,0.2,0.7,0.3,1c0.3,0.6,0.7,1.1,1,1.7c0.4,0.5,0.9,0.9,1.5,1.1c1.8,0.5,3.5,0.3,5.1-0.6c0.6-0.3,1-0.8,1.2-1.4
		c0.1-0.3,0.3-0.6,0.5-1c0.3,0.3,0.5,0.4,0.6,0.6c0.9,1.6,0.6,2.6-0.5,4c-0.6,0.7-1.4,1.1-2.2,1.4c-1,0.3-2.1,0.5-3.1,0.7
		c-1.4,0.2-2.7-0.3-4-0.8c-3-1.1-5.4-3.1-7.4-5.5c-0.8-0.9-1.4-1.9-1.9-3c-0.8-1.6-1.5-3.4-2.1-5.1c-0.5-1.4-0.6-3-0.7-4.5
		c0-0.7-0.1-1.3-0.1-2c0-1.9,0.6-3.6,1.6-5.3c1.1-1.8,2.3-3.5,3.8-4.9c1.7-1.6,3.6-2.7,5.8-3.5c1.3-0.4,2.5-1,3.8-1.2
		c2.2-0.3,4.4-0.5,6.6-0.4c3.1,0.1,6.2,0.8,9.2,1.5c1.8,0.4,3.6,1,5.3,1.6c1.3,0.5,2.7,0.8,4.1,1.2c2.7,0.9,5.4,1.8,8,2.7
		c1.4,0.5,2.6,1.1,4,1.7c0.9,0.4,1.8,0.7,2.7,1c1.9,0.5,3.8,1,5.7,1.5c2.5,0.6,4.9,1.2,7.4,1.8c2.4,0.6,4.9,1.1,7.4,1.6
		c1.9,0.4,3.8,0.7,5.6,1c2,0.3,4,0.4,6,0.3c0.8,0,1.7,0.1,2.5,0.1c1.7-0.1,3.4-0.1,5.2-0.3c2.5-0.2,4.9-0.8,7.3-1.4
		c0.6-0.1,1.3-0.5,1.9-0.8c1.2-0.7,2.5-1.5,3.7-2.2c0.4-0.2,0.7-0.4,1.1-0.6c0.2-0.1,0.4-0.1,0.5,0c1.1,0.3,2.2,0.7,3.4,1
		c1.9,0.5,3.9,1,5.9,1.4c1.3,0.3,2.7,0.5,4,0.6c0.5,0.1,0.7,0.4,1,0.7c0.1,0.1,0,0.3,0,0.4c0,0.1-0.1,0.2-0.2,0.2
		c-2.5,2.5-4.7,5.3-6.9,8.1c-1.6,2-3.1,4.1-4.6,6.2c-1.7,2.4-3.3,4.7-4.8,7.2c-1.2,1.9-2.3,4-3.4,6c-0.5,0.9-1,1.8-1.4,2.7
		c-0.6,1.2-0.9,2.5-0.9,3.9c0,0.8-0.1,1.6-0.1,2.4c0,1.2,0.4,1.6,1.5,2.1c0.7,0.3,1.5,0.4,2.2,0.3c1.3-0.1,2.6-0.3,3.9-0.9
		c0.4-0.2,0.6-0.4,0.7-0.9c0.4-1.9,0.8-3.7,1.4-5.5c0.4-1.1,0.7-2.3,1.1-3.4c0.1-0.2,0.1-0.3,0.2-0.5c1.5-4.1,3.1-8.1,4.9-12.1
		c1.3-2.7,2.8-5.1,4.7-7.4c1.6-1.9,3.7-3.4,6-4.5c2.8-1.3,5.7-1,8.4,0.3c0.9,0.4,1.6,1.2,2.2,2.1c0.3,0.5,0.4,1.1,0.4,1.7
		c0,0.2,0,0.3,0,0.5c0.3,3.1-0.7,5.9-1.8,8.7c-0.6,1.4-1.2,2.7-1.9,4c-1.4,2.6-3,5.1-5,7.3c-1.2,1.3-2.4,2.6-3.6,3.8
		c-0.6,0.6-1.3,1.2-2,1.8c-1.1,0.9-2.3,1.9-3.4,2.8C187.9,79.9,187.1,80.4,186.3,81z M186.5,75.4c0.2-0.1,0.3-0.1,0.3-0.1
		c1.2-0.9,2.4-1.7,3.5-2.6c2-1.5,3.9-3.2,5.6-5c0.5-0.5,1-1,1.4-1.6c1-1.4,2-2.8,2.6-4.4c0.1-0.2,0.2-0.4,0.3-0.5
		c1.1-1.9,1.8-4,2.1-6.1c0.1-0.7-0.3-1-0.9-0.8c-0.7,0.2-1.3,0.5-1.9,0.9c-1,0.8-1.9,1.6-2.7,2.5c-1.7,1.9-3.3,3.9-4.6,6.1
		c-0.8,1.3-1.4,2.6-2.1,3.9c-0.9,1.7-1.9,3.4-2.8,5.2C186.9,73.6,186.6,74.4,186.5,75.4z M222.3,59c-0.7,0.2-1.1,0.8-1.3,1.4
		c-0.5,1-1,2.1-1.5,3.1c-0.5,1.3-0.9,2.7-1,4.1c0,1.4,0.7,2.4,2.1,2.6c0.7,0.1,1.5,0.1,2.3,0.2c0.4,0,0.6-0.1,0.8-0.6
		c0.7-2,0.9-4,0.7-6.1C224.3,61.9,223.7,60.3,222.3,59z"/>
	<path class="st3" d="M147.5,81.6c1.4,0.9,2.8,1.5,4.3,0.7c1.1-0.5,2.2-1,3.2-1.9c0.8-0.7,1.4-1.4,1.9-2.3c0.2-0.4,0.5-0.8,0.7-1.2
		c0.3-0.5,0.6-0.6,1.1-0.5c0.5,0.2,1,0.4,1,1c0,0.3,0,0.7-0.1,1c-0.4,1.1-0.9,2.2-1.6,3.1c-1,1.2-2,2.4-3.3,3.3
		c-1.9,1.2-3.9,2.1-6.1,2.4c-0.2,0-0.3,0-0.5,0.1c-1.7,0.5-3.3,0.2-4.9-0.3c-0.7-0.2-1.4-0.6-1.9-1.1c-0.3-0.3-0.5-0.3-0.9-0.1
		c-1.1,0.5-2.2,1.1-3.4,1.5c-2.1,0.7-4.2,1.1-6.4,0.8c-0.9-0.1-1.7-0.5-2.4-1.1c-0.3-0.3-0.7-0.5-1-0.7c-0.2-0.1-0.3-0.4-0.3-0.6
		c-0.3-1.7,0-3.4,0.6-5c0.7-1.7,1.4-3.4,2.4-5c0.4-0.7,0.7-1.4,1-2.1c0.1-0.2,0.1-0.3,0.2-0.5c0.1-0.5,0.3-1.2-0.2-1.4
		c-0.5-0.3-1.1-0.2-1.6,0.2c-0.4,0.3-0.8,0.6-1.1,1c-0.7,1-1.4,2.1-2.1,3.1c-0.5,0.8-0.9,1.5-1.3,2.3c-1.3,2.1-2.3,4.4-3.3,6.8
		c-0.3,0.7-0.4,1.4-0.6,2.1c-0.2,0.6-0.5,0.8-1.2,0.7c-1.2-0.1-2.3-0.4-3.4-0.8c-1-0.3-2-0.6-3-0.8c-0.2,0-0.4-0.1-0.5-0.1
		c-1.2-0.4-1.5-0.9-1.3-2.2c0.6-3.4,1.1-6.9,1.6-10.3c0.5-3.6,1-7.2,1.5-10.7c0.4-2.6,0.6-5.3,0.7-8c0-0.2,0-0.5-0.1-0.8
		c-0.1,0-0.2,0.1-0.3,0.1c-1.1,0.9-2.1,1.9-3.3,2.8c-2.1,1.7-4.5,2.3-7.2,1.7c-3.2-0.6-6.1-1.9-8.9-3.4c-1.2-0.6-2.3-1.3-3.6-1.7
		c-1.4-0.5-2.7-0.4-4,0c-1.2,0.3-1.6,1.2-1.4,2.4c0.1,0.3,0.2,0.6,0.2,0.9c0,0.1-0.1,0.4-0.2,0.4c-0.1,0.1-0.4,0-0.5-0.1
		c-1.2-1-2.1-2.1-2.4-3.6c-0.4-1.9,0.7-3.6,2.5-4.4c0.5-0.2,1.1-0.3,1.7-0.5c1.7-0.5,3.3,0.1,4.9,0.6c0.7,0.2,1.4,0.5,2.1,0.8
		c1.4,0.5,2.7,1.4,3.9,2.3c0.9,0.6,1.9,1.2,3,1.5c1.6,0.5,3.1,0.6,4.6,0c1.6-0.6,3.2-1.4,4.7-2.4c1.1-0.8,2-1.9,2.7-3
		c0.1-0.1,0.1-0.3,0.2-0.4c0.1-0.3,0.3-0.5,0.6-0.5c1.1,0,2.1-0.4,3.1-0.6c1.5-0.3,3-0.6,4.5-0.9c1-0.2,1.5,0.1,1.8,1.1
		c0.2,0.7,0.4,1.5,0.5,2.2c0.2,2,0.2,4,0,6c-0.2,2.3-0.4,4.6-0.6,7c-0.2,2.5-0.5,4.9-0.7,7.4c0,0.2,0,0.4,0,0.7c0.1,0,0.2,0,0.2-0.1
		c1.4-1.4,2.7-2.9,4.1-4.4c0.7-0.7,1.3-1.5,2-2.2c0.6-0.6,1.4-1.2,2.1-1.7c0.2-0.2,0.6-0.3,0.9-0.3c2.6,0.1,4.8,1,6.8,2.6
		c0.8,0.7,1.1,1.5,0.6,2.7c-0.7,1.8-1.5,3.5-2.3,5.3c-0.8,1.7-1.6,3.5-2.3,5.2c-0.4,0.9-0.6,1.9-0.8,2.8c-0.2,1,0.1,1.5,1.1,1.7
		c0.3,0.1,0.6,0.1,0.9,0.1c0.8,0,1.6-0.3,2.3-0.8c0-0.8,0-1.5,0-2.3c0-0.4,0-0.8,0-1.2c0.4-2.5,0.8-5,1.7-7.4c1.1-2.9,2.7-5.6,4.8-8
		c1.5-1.7,3-3.3,4.6-4.8c0.6-0.5,1.1-0.9,1.8-1.3c0.8-0.5,1.6-0.9,2.4-1.3c1.1-0.6,2.3-0.7,3.4-0.9c0.3-0.1,0.7,0,1,0.1
		c2.1,0.4,3.8,1.7,5.1,3.3c0.4,0.4,0.7,0.9,1,1.3c0.4,0.5,0.4,1.2,0.4,1.8c-0.2,2.3-1,4.3-2.3,6.2c-1,1.6-2.3,2.9-3.6,4.2
		c-0.8,0.7-1.5,1.6-2.1,2.4c-1.1,1.4-2.4,2.7-3.9,3.9c-1.2,1-2.3,1.9-3.5,2.9C148.7,80.7,148.2,81.1,147.5,81.6z M145.9,76.6
		c0.1,0.1,0.2,0.1,0.2,0.2c0.1-0.1,0.1-0.3,0.2-0.4c2.5-2.1,5-4.2,7.6-6.3c2-1.7,3.6-3.7,4.9-6c0.2-0.3,0.3-0.6,0.4-0.9
		c0.1-0.2,0.1-0.5,0-0.8c-0.5-1.1-1.6-1.5-2.6-0.8c-1.6,1-3,2.2-4.1,3.6c-1.1,1.4-2,2.8-3.1,4.2c-1.4,1.8-2.5,3.7-3.2,5.8
		C146.1,75.6,146.1,76.1,145.9,76.6z"/>
	<path class="st3" d="M237.8,60.4c-0.4-0.7-0.7-1.5-0.5-2.3c0.5-2.4,1.6-4.4,3.6-5.8c0.5-0.4,1.1-0.7,1.7-1c1.4-0.7,2.9-0.8,4.5-0.4
		c4.1,1,6.6,3.8,8.1,7.6c0.4,1,0.5,2.2,0.7,3.3c0.4,2.1,0.6,4.2,0.5,6.4c-0.1,1.7,0,3.4-0.2,5c-0.5,5.8-2.4,11.2-5.2,16.2
		c-1.3,2.3-2.6,4.7-4.1,6.9c-1.8,2.7-3.8,5.4-6.2,7.5c-1.5,1.3-3,2.5-4.5,3.8c-0.3,0.2-0.4,0.5-0.7,0.7c-0.2,0.2-0.5,0.4-0.7,0.5
		c-0.5,0.4-1.1,0.7-1.6,1.1c-1.5,1.2-2.9,2.5-4.4,3.6c-0.9,0.7-1.9,1.2-2.9,1.7c-0.4,0.2-0.7,0-1-0.1c0-0.4,0-0.6-0.1-0.9
		c-0.1-0.3,0-0.4,0.3-0.6c0.6-0.3,1.2-0.7,1.8-1c0.6-0.3,1.1-0.7,1.6-1.1c1.6-1.5,3.2-3,4.6-4.7c1.8-2.3,3.4-4.7,4.6-7.4
		c0.9-2.2,1.9-4.4,2.8-6.7c0.4-1.1,0.7-2.2,1-3.3c0.4-1.5,0.9-3,1.4-4.5c0.8-2.3,1.4-4.6,1.9-7c0.7-3,1.2-6.1,1.3-9.2
		c0-0.9,0.1-1.7,0.1-2.6c0-0.5,0-1-0.2-1.5c-0.3-1.3-0.7-2.5-1-3.8c-0.2-1.2-1-1.9-2-2.5c-0.4-0.2-0.7-0.4-1.1-0.5
		c-0.8-0.2-1.6-0.1-2.2,0.6c-0.3,0.4-0.7,0.7-1,1.1C238.4,60.1,238.1,60.2,237.8,60.4z"/>
	<path class="st3" d="M140,92.6c0.7,0.1,1.4,0.2,2,0.3c1.6,0.2,3.3,0.4,4.9,0.5c1,0.1,1.9,0.2,2.9,0.2c1.9,0.1,3.8,0.3,5.6,0.4
		c2.7,0.1,5.3,0.1,8,0.2c2.4,0.1,4.8,0.3,7.1,0.4c3.2,0.2,6.4,0.5,9.5,0.8c2.5,0.2,4.9,0.4,7.4,0.5c2.5,0.1,5.1-0.1,7.5-0.8
		c1.5-0.4,3-0.8,4.3-1.6c0.7-0.4,1.1-1,1.4-1.7c0.3-0.8-0.1-1.6-1-1.8c-0.5-0.1-1-0.2-1.5,0c-0.4,0.2-0.7-0.1-0.6-0.5
		c0.1-0.3,0.3-0.6,0.5-0.7c0.4-0.3,0.9-0.6,1.3-0.8c0.3-0.1,0.5-0.2,0.8-0.2c2.3-0.1,4.3,1.1,5.2,3.1c0.3,0.8,0.5,1.6,0.7,2.5
		c0.3,1.2,0,2.3-0.4,3.4c-0.2,0.6-0.6,1-1.1,1.3c-1.8,1.1-3.6,2-5.6,2.5c-1.4,0.3-2.7,0.8-4.1,1c-1.2,0.2-2.4,0.3-3.6,0.3
		c-3,0-6.1-0.1-9.1-0.3c-1.7-0.1-3.4-0.3-5.2-0.5c-2.5-0.3-5.1-0.7-7.6-1.1c-2.4-0.3-4.8-0.6-7.2-0.9c-2.7-0.4-5.5-0.8-8.2-1.3
		c-1.7-0.3-3.3-0.9-5-1.3c-0.9-0.2-1.8-0.4-2.8-0.6c-1.2-0.2-2.3-0.6-3.4-1c-0.7-0.3-1.5-0.6-2.2-0.9c-0.3-0.2-0.6-0.5-0.9-0.7
		C139.8,93.1,139.7,92.8,140,92.6z"/>
	<path class="st3" d="M84.6,17.1c3.7,0.1,7.2,0.7,10.6,1.6c2.1,0.5,4,1.4,6,2.2c1.5,0.6,2.9,1.2,4.4,1.8c3.1,1.2,6.1,2.4,8.9,4.1
		c0.9,0.6,1.8,1.2,2.7,1.7c1.1,0.6,2.2,1.1,3.3,1.7c0.9,0.5,1.7,1,2.6,1.5c0.5,0.3,1.1,0.6,1.6,0.8c1.8,0.6,3.5,1.4,5.1,2.5
		c0.3,0.2,0.3,0.5,0.3,0.8c0,0.3-0.3,0.3-0.5,0.4c-0.7,0.2-1.3,0.1-1.9-0.1c-1.2-0.4-2.3-0.9-3.5-1.2c-1.7-0.5-3.4-0.9-5.1-1.4
		c-1.1-0.3-2.2-0.7-3.3-1.1c-1.2-0.4-2.4-0.8-3.6-1.2c-2.8-0.9-5.5-1.9-8.3-2.8c-1.8-0.6-3.6-1.2-5.5-1.5c-0.9-0.2-1.7-0.5-2.6-0.7
		c-3.1-1-6.3-1.5-9.6-1.7c-1.3-0.1-2.5-0.3-3.8-0.4c-1.5-0.1-3-0.1-4.5,0.3c-1.8,0.5-3.5,1.2-4.9,2.3c-0.8,0.6-1.5,1.3-2.3,1.9
		c-0.7,0.7-1.2,1.5-1.4,2.5c-0.2,0.8-0.4,1.7-0.6,2.5c-0.1,0.3-0.1,0.6-0.4,0.6c-0.2,0-0.4-0.3-0.5-0.5c-0.1-0.5-0.3-1.1-0.3-1.6
		c-0.1-2.2,0.4-4.3,1.3-6.3c0.2-0.4,0.4-0.8,0.6-1.3c1-2.1,2.6-3.6,4.7-4.5c3.1-1.4,6.4-2.3,9.9-2.6C84.3,17.1,84.5,17.1,84.6,17.1z
		"/>
	<path class="st3" d="M215.4,49.8c-1.4-0.3-2.6-0.9-3.5-2c-1-1.3-1.9-2.7-2-4.4c-0.1-2.4,0.5-4.6,2.2-6.4c1.3-1.4,3-2.3,5-2.6
		c0.5-0.1,0.9-0.2,1.4-0.2c2-0.4,4-0.1,6,0.3c0.7,0.2,1.5,0.3,2.2,0.4c1.3,0.3,2.4,1.1,3.5,1.7c2.1,1.2,3.8,2.9,5,5
		c0.6,1,0.8,2.1,1.2,3.2c0.5,1.7,0.8,3.4,0.7,5.2c-0.1,1.9-0.4,3.8-1,5.6c-0.5,1.9-1.4,3.6-2.2,5.5c-0.3,0.7-0.6,1.4-0.9,2.2
		c-0.1,0.2-0.2,0.3-0.3,0.5c-0.3,0.3-0.8,0.3-0.9-0.2c-0.3-1-0.7-2-0.6-3.1c0.1-1.2-0.1-2.5-0.1-3.8c-0.1-1.7-0.6-3.4-1-5.1
		c-0.3-1.5-0.7-2.9-1.3-4.3c-0.9-2.1-2.3-3.8-4.5-4.9c-0.7-0.4-1.4-0.8-2.2-1.1c-1.6-0.7-3.3-1.1-5.1-0.9c-1.3,0.1-2.4,0.6-3.1,1.7
		c-0.7,1.2-1.1,2.4-0.8,3.8c0.3,1.3,1,2.4,2.2,3.1C215.4,49.2,215.5,49.4,215.4,49.8z"/>
	<path class="st3" d="M95,108.3c-0.6-0.2-1.1-0.5-1.4-1c-0.5-0.7-0.9-1.4-1.1-2.2c-0.1-0.3-0.1-0.5-0.3-0.7
		c-0.6-1.2-0.2-2.5,0.8-3.4c1.8-1.4,3.8-2.5,6.2-2.4c0.1,0,0.2,0,0.2,0c1.6-0.3,3.1,0.1,4.5,0.6c1,0.3,2,0.6,2.9,0.9
		c1.7,0.6,3.3,1.1,4.9,1.8c2,0.8,3.9,1.8,5.8,2.7c0.8,0.4,1.7,0.7,2.6,1c1.2,0.5,2.4,0.9,3.6,1.3c1.9,0.8,3.9,1.3,5.9,1.6
		c2.4,0.4,4.8,0.6,7.2,1c1.2,0.2,2.3,0.5,3.5,0.7c0.4,0.1,0.5,0.4,0.5,0.8c0,0.4-0.2,0.5-0.5,0.5c-0.5,0.1-1,0.3-1.5,0.4
		c-2.7,0.8-5.5,1.1-8.4,1.2c-2.6,0.1-5.2,0-7.7-0.5c-1.4-0.2-2.8-0.3-4.1-0.7c-2-0.5-3.9-1-5.8-2c-1.6-0.9-3.3-1.7-4.9-2.6
		c-1.8-0.9-3.5-1.9-5.3-2.8c-1.4-0.7-3-1-4.6-0.9c-1,0-1.9,0.5-2.6,1.1c-0.3,0.2-0.5,0.6-0.6,1c-0.1,0.6-0.2,1.2,0.1,1.9
		C95.1,107.9,95,108,95,108.3z"/>
	<path class="st3" d="M89.7,81.3c1.4-0.1,2.7,0,4.1,0.3c1.2,0.2,2.4,0.2,3.6,0.4c1.1,0.2,2.3,0.4,3.4,0.6c0.5,0.1,1,0.2,1.6,0.2
		c1.1,0,2.1,0.4,3.1,0.6c0.2,0.1,0.4,0.3,0.6,0.6c0.1,0.1,0.1,0.3,0,0.4c-0.2,0.5-0.8,0.8-1.3,0.7c-2.7-0.4-5.5-0.6-8.2-0.7
		c-2.4-0.1-4.7-0.3-7.1-0.3c-1.1,0-2.2,0-3.3,0.2c-2.1,0.3-3.9,1.3-5.7,2.3c-1.7,1-3.1,2.2-4.4,3.5c-0.3,0.3-0.7,0.6-1,0.9
		c-0.3,0.3-0.6,0.7-0.8,1c-0.3,0.5-0.5,0.5-0.9,0.1c-0.4-0.4-0.5-1-0.2-1.5c0.4-0.8,0.8-1.7,1.3-2.4c1.9-2.4,4.3-4.2,7.1-5.2
		c2-0.7,4.1-1.2,6.2-1.3C88.5,81.4,89.1,81.4,89.7,81.3z"/>
	<path class="st3" d="M228.5,78.7c0.5,0.1,0.8,0.4,0.9,0.8c0.1,0.5,0,1,0,1.5c-0.3,2.3-1.4,4.2-2.5,6.1c-0.7,1.2-1.3,2.3-2,3.5
		c-0.8,1.3-2.1,2.4-3.3,3.3c-1.4,1.2-2.9,2.3-4.4,3.4c-1.7,1.2-3.3,2.3-5.3,3.1c-0.8,0.3-1.6,0.6-2.4,0.8c-0.5,0.2-1,0.1-1.4-0.3
		c-0.2-0.2-0.3-0.5-0.1-0.7c0.2-0.3,0.4-0.5,0.7-0.7c1-0.6,2-1.2,3.1-1.8c3-1.6,5.9-3.4,8.4-5.7c1.7-1.5,3.4-3.2,4.6-5.1
		c0.6-1,1.2-2,1.6-3.2c0.4-1.3,0.8-2.6,1.4-3.8C228,79.5,228.3,79.1,228.5,78.7z"/>
	<path class="st3" d="M140.1,37.7c0.3,0,0.6,0,0.9,0.1c1.1,0.2,2.2,0.5,3.3,0.6c1.2,0.2,2.4,0.2,3.6,0.3c1.6,0.1,3.2,0.3,4.8,0.4
		c2.4,0,4.7-0.1,7.1-0.1c0.1,0,0.3,0,0.4,0c2,0,3.9-0.2,5.8-0.7c1.5-0.4,2.9-0.7,4.4-1.2c0.7-0.3,1.5-0.2,2.3-0.3
		c0.1,0,0.2,0.1,0.4,0.1c0.4,0.1,0.5,0.3,0.5,0.7c0,0.3-0.2,0.5-0.5,0.6c-1.2,0.4-2.3,0.9-3.6,1.2c-1.7,0.3-3.4,0.8-5.1,1
		c-2.1,0.3-4.2,0.6-6.4,0.8c-2,0.2-4,0.2-6,0c-0.7-0.1-1.5-0.2-2.2-0.3c-1.3-0.2-2.7-0.3-4-0.5c-1.2-0.2-2.4-0.4-3.5-0.7
		c-0.6-0.1-1.1-0.4-1.6-0.6C140,38.7,140,38.7,140.1,37.7z"/>
	<path class="st3" d="M206.7,40.6c-0.7,0-1-0.6-1.4-1.1c-0.1-0.2,0-0.5,0.1-0.7c0.7-1.8,1.9-3.2,3.1-4.7c0.7-0.8,1.4-1.5,2.1-2.2
		c0.1-0.1,0.2-0.2,0.3-0.2c1.5-0.7,3-1.6,4.6-1.9c1-0.2,2-0.4,3.1-0.5c0.7-0.1,1.5-0.1,2.2,0c1.7,0.2,3.3,0.4,5,0.7
		c1.6,0.3,3.2,0.9,4.3,2.2c0.2,0.2,0.3,0.4,0.4,0.7c0.1,0.1,0,0.4,0,0.4c-0.1,0.1-0.3,0.2-0.5,0.1c-2-0.6-4-1.3-6-1.9
		c-1.3-0.4-2.6-0.6-4-0.4c-1,0.1-2,0.1-3,0.2c-0.6,0.1-1.3,0.2-1.9,0.4c-1.8,0.7-3.2,1.8-4.4,3.2c-1,1.1-2,2.2-2.8,3.5
		C207.5,39.2,207.1,39.9,206.7,40.6z"/>
</g>
</svg>
