<?xml version="1.0" encoding="utf-8"?>
<!-- Generator: Adobe Illustrator 26.0.3, SVG Export Plug-In . SVG Version: 6.00 Build 0)  -->
<svg version="1.1" id="Layer_1" xmlns="http://www.w3.org/2000/svg" xmlns:xlink="http://www.w3.org/1999/xlink" x="0px" y="0px"
	 viewBox="0 0 324.7 148.9" style="enable-background:new 0 0 324.7 148.9;" xml:space="preserve">
<style type="text/css">
	.st0{fill:#F65275;}
	.st1{fill:#FFFFFF;}
</style>
<g id="Back">
	<g id="Layer_9">
		<path class="st0" d="M273.5,14C266.9,4,254.3,3.3,243.6,1.5l-11.3-1.7l-13.1-0.4c-4.4-0.2-8.3-0.9-12.7-0.9
			c-67.2-0.4-17.2,0.4-84.4,2.6C107.6,1.7,93.3,2,78.9,4C72.2,5,64.4,6.8,60.6,12.5c-2.4,3.5-3.1,7.9-3.5,12.1
			c-2.9,29.9-1.5,60.4,4.8,89.8c1.7,7.9,4,16.5,10.3,21.7c5.1,4.4,12.1,5.7,18.9,6.4l129.6-6.6l24.6,12.9l-4.6-25.9
			c13.4-6.7,18.7-25.5,21.8-35.2c4.2-13,6.2-26.8,10.8-39.9C277,37.6,280.1,23.9,273.5,14z"/>
		<g>
			<path class="st0" d="M273,68.7c5.7,3.9,12.7,5.3,19.5,6.8c7,1.5,14,3.3,20.9,5.1c0.7,0.2,2.4,0.6,2.6-0.6c0-1.1-2.8-1.8-3.5-2
				c-7.2-2.2-14.3-4-21.5-5.7C284.9,71.1,278.9,70,273,68.7z"/>
			<path class="st0" d="M266.7,123.6c11.6,6.8,23.1,13.6,34.2,21.1c0.2,0,0.4,0.2,0.6,0.2c0.6,0,0.9-0.6,0.7-1.1s-0.6-0.7-0.9-1.1
				c-7.7-5.7-15.2-11.2-23.5-16c-1.7-0.9-3.5-2-5.3-2.6S268.6,123.2,266.7,123.6z"/>
			<path class="st0" d="M275.2,99.2c0.6,0.6,1.5,0.9,2.2,1.3c9.2,3.9,18.2,8.3,26.8,13.4c0.4,0.4,1.1,0.7,1.7,0.7
				c1.1,0,1.7-0.6,0.6-1.3c-1.7-1.3-3.5-2.4-5.3-3.3c-1.3-0.6-2.6-1.3-3.3-2.4c-0.2-0.6-0.4-1.1-0.7-1.5c-0.7-1.3-3.1-1.7-4.4-2.2
				c-2-0.7-4-1.7-6.1-2.4c-3.9-1.5-7.9-3.1-11.8-4.6c0-0.2,0-0.2,0,0C274.3,97.5,274.5,98.6,275.2,99.2z"/>
			<path class="st0" d="M287.5,43.9c-2.4,0.2-5.1,0.6-7.3,1.5c7.2,0.4,14.1,0.9,21.1,0.9c7.2,0,14.1,0.2,21.3,0.7
				c0.4,0,0.7,0,1.1-0.2s0.7-0.6,0.6-0.9c0-0.4-0.4-0.6-0.7-0.7c-2-0.9-4.2-0.9-6.4-1.1s-4.6-0.4-7-0.6c-4.8-0.4-9.5-0.6-14.3-0.4
				c-1.3,0-2.6,0.2-3.9,0.2C290.4,43.3,289,43.5,287.5,43.9z"/>
			<path class="st0" d="M279,16.8l2.9,0.6c2.2-0.2,4.8-2.6,7-3.1c9.2-2.2,15.8-2.4,25.2-5.1c1.1-0.4,2.2-0.9,2-1.8
				c0-0.2,0-0.4-0.2-0.4c0,0-0.2,0-0.4,0l-4.4,0.9C300.1,10,288,10,279,16.8z"/>
			<path class="st0" d="M277.9,83.2c5.7,1.1,11.4,2.8,16.9,4.6c0.9,0.2,2,0.7,3.1,1.1c-0.2,1.5-0.4,1.7-1.7,1.3
				c-6.4-2.2-12.9-3.9-19.5-5.3"/>
			<path class="st0" d="M290.6,59.1c2.6,1.3,5.9,0.7,8.8,1.1c1.3,0.2,2.8,0.4,4,0.6c0.7,0,1.1-0.2,1.1-0.9c0-0.4-0.2-0.7-0.6-0.7
				c-0.6-0.2-1.3-0.2-2-0.4c-3.5-0.6-7.2-0.9-10.8-1.5C291.2,57.3,290.4,58.8,290.6,59.1z"/>
			<path class="st0" d="M280,113.9c-2.9-1.5-7-2.2-9.4-4.6c2.8,5.3,9.9,6.8,14.7,9.2c0.6,0.2,0.9,0.4,1.5,0.2c1.8-0.7-1.7-2.2-2-2.4
				c-0.7-0.4-1.3-0.6-1.8-0.9C282,114.8,281.1,114.4,280,113.9z"/>
			<path class="st0" d="M282.9,32.2c0.2-0.6,13.4-0.9,14.9-0.9c0.4,0,0.7,0.2,1.1-0.2s0.6-0.7,0.4-1.1c-0.4-0.4-0.9-0.4-1.3-0.4
				c-5,0.2-9.9,0.4-14.9,0.6C283.1,30.9,282.9,31.5,282.9,32.2z"/>
			<path class="st0" d="M295.8,121.6c0.4,0.2,0.4,0.6,0.2,0.9c-0.4,0.4-0.7,0.7-1.3,0.4c-0.7-0.4-1.7-0.7-2.6-1.3
				c-0.2-0.2-0.6-0.4-0.7-0.6c-0.2-0.4-0.2-0.7,0.2-1.1c0.2-0.2,0.6-0.4,0.7-0.4C293.7,120.3,294.8,120.8,295.8,121.6z"/>
			<path class="st0" d="M303.1,91.8c-0.6-0.2-0.6-0.7-0.4-1.3c0.2-0.6,0.7-0.7,1.3-0.6c0.9,0.4,1.7,0.6,2.6,0.9
				c0.6,0.2,0.9,0.4,0.7,0.9c-0.2,0.7-0.6,0.9-1.1,0.7s-1.1-0.2-1.7-0.2C304,92.2,303.5,92.2,303.1,91.8z"/>
			<path class="st0" d="M310.1,61c-0.2-0.2-0.4-0.2-0.4,0c-0.6-0.2-0.9-0.7-0.7-1.3s0.6-0.6,1.1-0.6c0.9,0,1.8,0,2.8,0.2
				c0.4,0,0.9,0.2,0.9,0.7c0,0.6-0.4,0.9-0.9,0.9C311.9,61,311,61,310.1,61L310.1,61z"/>
			<path class="st0" d="M302.6,124.5c0.2,0.2,0.4,0.6,0.6,0.7c0.2,0.6-0.4,1.3-0.9,1.3s-2.6-1.5-2.6-2c-0.2-0.2,0-0.6,0.2-0.9
				c0-0.2,0.4-0.2,0.6-0.4C301.1,123.8,301.8,124.1,302.6,124.5z"/>
			<path class="st0" d="M303.1,29.3c-0.2,0.2-0.4,0.4-0.4,0.6c0,0.4,0.2,0.6,0.4,0.7c0.2,0,0.4,0.4,0.6,0.4h0.2
				c0.7-0.2,1.7-0.2,2.4-0.4c0.2,0,0.4,0,0.6-0.2c0.4-0.2,0.4-0.6,0.4-0.9c-0.2-1.1-2.6-0.4-3.3-0.4c-0.2,0-0.2,0-0.4,0
				C303.4,29.1,303.3,29.1,303.1,29.3z"/>
			<path class="st0" d="M314.9,93.5c0.2,0,0.6,0.4,0.6,0.6c0,0.4-0.2,0.7-0.4,0.9c-0.4,0.2-0.7,0.2-1.1,0.2c-0.7-0.2-1.5-0.4-2-0.7
				c-0.6-0.4-0.6-0.9-0.2-1.3c0.2-0.2,0.6-0.4,0.7-0.4C313.6,92.9,314.3,93.1,314.9,93.5z"/>
			<path class="st0" d="M321.7,61.2c0.2,0.4,0.4,0.7,0.4,1.1c0,0.4-0.6,0.4-0.9,0.4c-0.7-0.2-1.3-0.2-2-0.4
				c-0.7-0.2-1.1-0.6-0.9-1.1c0.2-0.6,0.4-0.7,1.1-0.7c0.6,0,0.9,0.2,1.5,0.2C320.9,60.6,321.5,60.6,321.7,61.2z"/>
			<path class="st0" d="M310.8,30.4c0.7,0.2,1.7,0,2.6,0c0.6,0,1.3,0,1.1-0.7c-0.2-0.4-0.4-0.9-0.6-0.9c-1.1-0.4-2.2,0-3.1,0.4
				C310.2,29.3,310.1,30.2,310.8,30.4z"/>
		</g>
		<g>
			<path class="st0" d="M31.7,143.6c-0.4,0.7,0.6,1.3,1.3,1.3c1.1,0,2-0.4,2.9-0.9c2.8-1.5,5.7-2.9,8.4-4.4c1.7-0.9,3.5-2.9,3.3-5.1
				c-2.6,0.4-5.3,2.9-7.5,4.2c-2.4,1.5-5,2.9-7.5,4.4c-0.2,0-0.2,0.2-0.4,0.2C32.1,143.4,31.9,143.6,31.7,143.6z"/>
			<path class="st0" d="M27.3,0.6c0,0.4,0,0.6,0.2,0.7c0.9,1.8,2.6,2.8,4.2,3.9c5,2.9,9.7,6.1,15.1,8.3c-0.9-1.3-1.7-3.5-2.8-4.6
				c-1.3-1.1-3.3-2-4.8-2.8c-3.3-2-6.6-3.9-9.9-5.7C29,0.2,28.6,0,28.3,0c0,0-0.2,0-0.4,0C27.7,0,27.5,0.2,27.3,0.6z"/>
			<path class="st0" d="M10.4,117c0.6,0.2,0.9,0.2,1.5,0c10.3-2.9,20.6-7,30.1-11.6c3.7-1.7,8.6-4,11.4-7.2c-1.3,0-3.5,1.5-5,2
				c-1.8,0.9-3.7,1.7-5.5,2.4c-3.5,1.5-7.2,2.9-10.7,4.4c-7,2.8-14.1,5.5-21.1,8.4c-0.2,0-0.4,0.2-0.6,0.2c-0.2,0-0.2,0-0.4,0.2
				C9.9,116.2,10.3,116.8,10.4,117z"/>
			<path class="st0" d="M4,68.7c-0.7,0.6-0.6,1.7,0.4,1.5c2.9,0.2,5.7,0.7,8.6,0.6c10.3-0.4,20.8,0,31-1.7c-1.5-2.8-5.3-1.8-7.9-1.7
				c-3.5,0-7,0.2-10.5,0.4c-7,0.2-13.8,0.6-20.8,0.7C4.6,68.5,4.2,68.5,4,68.7C4,68.9,4,68.9,4,68.7z"/>
			<path class="st0" d="M8.1,30.5c-0.2,0.6,0.6,1.1,1.1,1.3c6.2,2.8,12.7,5.1,19.1,7.2c3.3,1.1,6.6,2,9.9,2.9
				c1.5,0.4,3.1,0.9,4.8,1.3c0.9,0.2,3.1,0.9,2.2-1.1c-0.9-1.5-6.4-2.2-8.1-2.8c-3.1-0.9-6.1-2-9.2-2.9c-6.1-2-11.9-4-17.8-6.4
				c-0.9-0.2-2-0.4-2.4,0.4C7.7,30.3,7.7,30.5,8.1,30.5z"/>
			<path class="st0" d="M20.4,132.2c0.2,0.9,0.6,1.1,1.5,0.7c1.5-0.7,2.9-1.3,4.4-2c1.8-0.9,3.9-1.8,5.7-2.8c4.6-2.6,9.4-5,14-7.5
				l-3.1-1.1c-1.1,0.6-2.2,1.3-3.3,1.8c-1.3,0.7-2.6,1.3-3.7,2c-3.3,2-6.8,3.7-10.3,5.3c-1.7,0.9-3.3,1.8-5.1,2.8
				C20.4,131.5,20.2,131.7,20.4,132.2z"/>
			<path class="st0" d="M25.5,17.8c0.2,0.4,0.7,0.7,1.1,0.9c5,2.9,9.9,5.7,15.1,8.4c0.4,0.4,0.9,0.6,1.3,0.6c0.9,0.2,2-0.6,2.6-1.3
				C39.5,23.1,33,20,26.8,16.9c-0.2-0.2-0.6-0.2-0.7-0.2c-0.2,0-0.4,0.2-0.4,0.2C25.5,17.1,25.5,17.4,25.5,17.8z"/>
			<path class="st0" d="M27,88.5c-0.6,0-1.1,0.4-1.1,0.7c0,0.7,0.7,1.1,1.3,1.1c1.5,0.2,2.9,0,4.2-0.2c3.9-0.7,7.5-1.8,11-3.3
				c3.1-1.3,7.3-2.8,9.9-4.8c-8.4,1.7-16.7,4-25,6.4C27.3,88.5,27.2,88.5,27,88.5z"/>
			<path class="st0" d="M22.2,54.5c0,0.7,0.7,1.1,1.3,1.1c0.9,0.2,1.8,0.2,2.8,0.4c5.9,0.7,11.8,1.3,17.6,1.7
				c-0.4-0.9-0.7-1.8-1.1-2.8c-3.9,0-7.7-0.2-11.6-0.4C30.1,54.5,23.1,53.4,22.2,54.5C22.2,54.5,22,54.7,22.2,54.5z"/>
			<path class="st0" d="M9.9,94.6c-0.7,0.7-1.8,0.7-2.8,0.9c-1.5,0.2-1.7,0-1.5-1.7c1.3-0.2,2.4-0.7,3.7-0.9
				c1.1-0.4,1.3-0.2,1.3,1.3C10.3,94.4,9.9,94.4,9.9,94.6z"/>
			<path class="st0" d="M20.5,90.4c0.6,1.3,0.4,1.7-0.7,2c-1.1,0.2-2.4,0.6-3.7,0.4c-0.2-0.6-0.2-0.9-0.4-1.5
				C17.4,91.1,18.9,90.4,20.5,90.4z"/>
			<path class="st0" d="M20.7,13.6c0.2,0.2,0,0.7-0.2,1.1c-0.2,0.2-0.6,0.4-0.7,0.4c-1.3-0.4-2.2-1.1-2.9-2.2
				c-0.4-0.6,0.2-1.5,1.1-1.5C18.9,11.9,19.8,12.7,20.7,13.6z"/>
			<path class="st0" d="M0.9,53.4c-0.6-0.2-0.7-0.7-0.6-1.1c0.2-0.2,0.4-0.7,0.6-0.7c1.1,0,2.4,0.4,3.5,0.6c0.2,0.2,0.4,0.7,0.4,0.9
				c0,0.2-0.4,0.4-0.6,0.6c-0.4,0-0.7,0-1.3,0.2C2.4,53.6,1.6,53.4,0.9,53.4z"/>
			<path class="st0" d="M13,7.7c0.2,0.2,0.4,0.4,0.6,0.6c0.4,0.6,0.4,0.9,0,1.5c-0.4,0.4-0.9,0.4-1.3,0c-0.6-0.4-0.9-0.6-1.5-0.9
				c-1.3-0.7-1.3-1.5,0-2.4C11.5,6.8,12.3,7.3,13,7.7z"/>
			<path class="st0" d="M12.6,52.7c0.6,0,1.3,0,1.8,0c0.7,0.2,1.1,0.6,1.1,1.1c0,0.7-0.4,1.1-1.1,1.1c-0.9,0-1.8-0.2-2.9-0.4
				C11.4,53.1,11.5,52.9,12.6,52.7z"/>
			<path class="st0" d="M16.1,135.2c-0.7,0.4-1.5,0.7-2.2,1.1c-0.2,0-0.7-0.2-0.9-0.4c-0.6-0.6-0.6-1.1,0.2-1.5
				c0.6-0.2,0.9-0.4,1.5-0.7c0.6-0.4,1.3-0.4,2.2,0C16.5,134.2,16.5,134.8,16.1,135.2z"/>
			<path class="st0" d="M8.6,138.1c0.2,0.2,0.2,0.7,0,0.9c-0.6,0.7-1.3,1.1-2.2,1.5c-0.6,0.2-0.7-0.2-0.9-0.6
				c-0.2-0.6,0-1.1,0.4-1.5c0.6-0.6,1.5-0.7,2.2-1.1C8.2,137.7,8.4,137.7,8.6,138.1z"/>
		</g>
	</g>
</g>
<g>
	<path class="st1" d="M79.1,20.4c1,0.2,0.2,1.8,0,2.2c-0.5,1.6-1.1,3.3-1.3,4.9c-0.4,2.6,0.3,5.5,2.4,7.2c0.5,0.4,2,1.1,2.1,1.8
		c0,1-1.1,1.4-1.8,1.2c-1-0.3-1.9-1.5-2.6-2.2c-0.8-1-1.3-2-1.7-3.2c-1.1-3.3-0.4-7.6,1.3-10.6C77.8,21.6,78.5,20.3,79.1,20.4
		L79.1,20.4"/>
	<path class="st1" d="M212.5,125c0.1-0.4,0.3-0.7,0.4-1.1c0.1-0.4,0.4-0.4,0.7-0.5c0.4-0.1,0.8-0.2,1.1-0.4c1.1-0.4,2.2-0.9,3.2-1.6
		c0.4-0.4,0.9-0.6,1.3-0.9c0.6-0.4,1.1-0.8,1.7-1.2c0.4-0.4,0.9-0.7,1.2-1.1c0.5-0.5,1-1.1,1.4-1.6c1-1.2,1.9-2.5,2.8-3.8
		c0.4-0.5,0.7-1.1,1.1-1.8c0.6-1.1,1.2-2.1,1.8-3.3c0.6-1.3,1.2-2.6,1.8-4c0.2-0.6,0.4-1.1,1-1.6c0.3,0,0.4,0.3,0.4,0.5
		c0,0.4,0.1,0.7,0,1.1c-0.3,1.1-0.5,2.4-1.1,3.4c-0.4,0.7-0.7,1.4-1,2.2c-0.4,1.1-1.1,2-1.7,3c-0.3,0.4-0.5,1-0.9,1.4
		c-0.4,0.6-1,1.3-1.4,1.9c0,0-0.1,0.1-0.1,0.2c-0.5,0.8-1.1,1.5-1.7,2.3c-0.3,0.4-0.6,0.7-1,1.1c-0.8,0.9-1.8,1.7-2.6,2.4
		c-0.7,0.6-1.5,1.1-2.3,1.7c-0.3,0.2-0.5,0.4-0.9,0.4c-1.1,0.6-2.4,1.1-3.7,1.4c-0.3,0.1-0.5,0.1-0.8,0.2
		C212.8,125.6,212.5,125.5,212.5,125"/>
	<path class="st1" d="M203.4,53.3c0.2-0.4,0.7-1,0.9-1.2c1-1.5,2.1-2.8,3-4.3c0.7-1.2,1.4-2.6,1.9-3.9c0.4-0.9,1.1-2.8,0.6-3.7
		c-0.4-0.8-0.4,0.6-0.7,0.7c-1.4,0.1-0.3-3,0.2-3.7c1-1.8,3.3-1.2,4,0.5c0.7,1.8-0.2,4.9-1,6.6c-1.5,3.3-3.9,5.7-6.3,7.7
		c-0.6,0.5-1.3,1.1-1.9,1.6c-0.3,0.2-0.8,0.4-0.7-0.1C203.4,53.4,203.4,53.3,203.4,53.3"/>
	<path class="st1" d="M99.2,34.2c0,0.7-1.4,1.6-1.8,1.8c-2,1-4.7,0.6-6.2-1.1c-2.3-2.5-1.4-6.1,0.9-8.2c1.3-1.2,2.8-2.1,4.5-2.7
		c1.3-0.4,3.9-1.1,5.3-0.6c1.5,0.6-1.8,2.5-2.2,2.7c-1.7,1-4,1.9-3.9,4.2c0,1.3,1,2.6,2.3,2.9c0.4,0.1,0.6,0.1,1,0.3
		C99.1,33.7,99.2,33.9,99.2,34.2"/>
	<path class="st1" d="M135.1,99.2c2.8-0.4,5.6,0.4,8.4,1c13.5,3.1,27.6,5.5,41.1,2.6c0.6-0.1,1.4-0.2,1.6,0.4
		c0.2,0.6-0.6,1.1-1.2,1.2c-8.3,2-16.8,1.4-25.2,0.3c-4.3-0.5-8.5-1.1-12.9-1.8c-2.1-0.4-11-1.1-11.8-3.3"/>
	<path class="st1" d="M106.2,11.1c0.4-1.1,2.8-0.3,3.5-0.1c1.9,0.6,4,1.1,5.9,1.5c3.3,1,6.6,1.6,10,2.4c3.3,0.8,6.5,1.3,9.9,1.8
		c6.4,0.7,13.3,0.8,19.5-1.1c0.2-0.1,0.4-0.1,0.6,0c0.5,0.1,1.1,0.3,0.9,0.9c-0.2,0.7-1.2,1.1-1.8,1.4c-3.9,1.8-8.5,1.8-12.7,1.7
		c-4.7-0.2-9.2-1-13.8-1.8c-3.9-0.7-7.7-1.5-11.6-2.4c-1.9-0.4-3.9-1-5.8-1.6C109.7,13.3,105.6,12.6,106.2,11.1"/>
	<path class="st1" d="M135.5,119.7c0,0.1,0.1,0.1,0.1,0.2c0.4,1.7-9.2,0.4-10.4,0.3c-4-0.8-7.8-2.3-11.2-4.7c-2-1.4-3.8-3.1-5.9-4.5
		c-1.8-1.1-4.2-2.4-6.4-2.1c-1.6,0.2-3.9,1.4-3.3,3.3c0.1,0.4,2.6,1.8,1,1.8c-2,0-2.9-1.8-2.6-3.7c0.3-2.2,1.7-4.6,3.8-5.5
		c2.4-1.1,5.5-0.8,7.9,0.1c2.8,1,5.2,2.6,7.5,4.5c2.3,1.8,4.5,3.8,6.9,5.5c3.3,2.3,7,3.1,10.8,4.1
		C134.3,119.1,135.2,119.1,135.5,119.7"/>
	<path class="st1" d="M217.8,83.4c-0.4,0.7-1.1,0.2-1.2-0.4c-0.3-0.6,0.1-1.8,0.3-2.4c0.4-1.4,1.4-2.9,2.6-3.8c1.4-1,3.9-0.5,5.4,0
		c1.8,0.6,3.3,1.8,4.3,3.3c1.4,2,1.8,4.7,1.8,7.1c0.2,4.3-0.3,8.7-1.6,12.9c-1.2,4-3.1,7.7-5.5,11.1c-0.6,0.8-1.4,2.2-2.4,2.7
		c-1.5,0.8-0.4-1.3,0-1.8c2.4-3,3.2-7,3.6-10.7c0.6-5.7,0.4-11.4-1.5-16.9c-0.4-0.9-0.7-1.8-1.3-2.5c-0.6-0.7-1.5-1.2-2.5-1.2
		C218.3,81,218.2,82.2,217.8,83.4C217.9,83.3,217.9,83.3,217.8,83.4"/>
	<path class="st1" d="M122.4,65.1c0.2,0.1,0.4,0.2,0.5,0.3c0.4,0.3,0.6,0.7,0.4,1.1c-1.7,2.3-4.9,3.5-7.7,3.8
		c-3.3,0.4-6.6-0.8-9.8-1.6c-3.3-0.9-6.7-1.5-9.8-0.4c-5.7,2.1-6.8,8.5-5,13.6c0.1,0.3,0.2,0.5,0.1,0.7c-0.6,1.4-3.8-1.3-4.1-1.8
		c-1.1-1.4-1.7-3.3-2.1-5.1c-0.8-3.7,0.1-7.3,2.9-10c6.3-5.7,14.4-0.8,21.4,0.5C113.7,67.3,117.9,66.3,122.4,65.1"/>
	<path class="st1" d="M177.6,17.3c0.1,0,0.2,0.1,0.3,0.2c0.2,0.3,0,0.7-0.2,1c-0.3,0.3-0.5,0.4-0.7,0.8c-0.3,0.6,0.3,1.5,1,1.7
		c0.7,0.2,1.4,0,2.1-0.3c1.9-0.8,3.2-2,4.7-3.4c1.5-1.3,3.3-2.5,4.8-3.5c3.4-2.3,7.2-4.1,11.3-5.2c1.6-0.4,3.2-0.8,4.8-1
		c3.7-0.4,7.6,0,10.9,1.7c2.3,1.1,4.3,2.7,5.8,4.8c0.4,0.6,1.6,1.8,1.4,2.6c-0.2,0.8-1.1,0.2-1.5-0.1c-1-0.4-2-0.8-3.1-1.1
		c-4.8-1.6-9.9-2.1-14.9-1.7c-6.7,0.6-13.2,3.2-18.6,7.1c-1.9,1.5-4.1,3.3-6.6,3.4c-1.3,0.1-2.7-0.4-3.5-1.4c-0.8-0.9-0.9-1.9-0.4-3
		c0.4-0.7,1.1-2,1.8-2.5C177.1,17.3,177.3,17.3,177.6,17.3"/>
	<path class="st1" d="M178.1,114.8c-9-0.4-18-3.2-26.3-6.3c-2-0.8-4.1-1.6-6.1-2.5c-0.4-0.2-1.5-0.7-1-1.3c0.6-0.6,1.8-0.2,2.6,0
		c1.1,0.4,2.3,0.7,3.4,1c3.8,1,7.5,1.9,11.4,2.6c8.8,1.6,18,1.7,26.6-0.6c2-0.5,3.9-1.4,5.6-2.6c0.2-0.1,0.4-0.3,0.5-0.4
		c1.4-1.1,4.3-4.1,1.8-5.6c-0.6-0.4-1.4-0.4-2.1-0.1c-0.4,0.2-0.8,0.5-1.1,1c-0.3,0.4-0.4,0.9-0.9,0.8c-0.7-0.1-0.5-1-0.3-1.4
		c2.3-3.7,7.9-6.7,11.9-3.8c3.1,2.3,2.7,6.4,1.1,9.5c-1.8,3.3-5.4,5.2-8.8,6.6C190.7,114.1,184.4,115.1,178.1,114.8"/>
	<path class="st1" d="M172.6,68.9c-1.2-2.5-4.3,1.1-3.5,3.2c0.3,0.5,0.7,1.2,1.2,1.6c1.4,0.9,1.9-1.1,2.3-2.3
		c0.3-0.7,0.4-1.5,0.1-2.2C172.7,69,172.7,68.9,172.6,68.9 M159.4,73.6c-0.5,0-1.2,0.4-1.8,1.1c-1.1,1.3-2,2.9-2.8,4.5
		c-1.2,2.6-2,5.4-2.1,8.2c3.4-3,6.1-7,7.4-11.3C160.5,74.5,160.2,73.6,159.4,73.6 M133.5,69.7c-2.4,0-3.9,7.6-4,8.9
		c0,0.9,0,1.7,0.4,2.5c0.4,0.7,1.2,1.3,2,1.1c0.7-0.1,1.2-0.7,1.7-1.3c2-2.8,2.6-6.5,1.4-9.8c-0.2-0.4-0.4-1-0.9-1.2
		C134,69.8,133.7,69.7,133.5,69.7 M132.7,86.4c-2.1,0.2-4,0.1-5.3-1.8c-1.1-1.5-1.1-3.7-0.9-5.5c0.3-3.2,4-16.4,9.4-11.8
		c0.6,0.5,1.1,1.3,1.4,2c1.2,2.8,1,5.6,0.9,8.6c0,0,0,0.1,0.1,0.1c0,0,0.1-0.1,0.2-0.1c1.5-1.5,2.3-4.1,3-6c0.8-2.1,1.6-4.2,3.1-6
		c1.1-1.2,2.3-2.2,3.6-3.2c1.3-1,2.5-2,3.9-2.7c1.6-0.8,3.1-1,4.8-0.9c0.5,0,2.7,0,1.8,1.1c-2.6,3.1-5.4,6-7.7,9.2
		c-3.5,4.8-5.9,10.6-7.3,16.3c-0.4,1.4-0.6,2.8-0.4,4.3c0,0.4,0.1,0.7,0.4,1c0.3,0.4,0.7,0.4,1.1,0.5c5.2,0.7,2.5-5.6,2.7-8.6
		c0.4-4.7,2.5-9.2,5.9-12.5c3.9-3.6,6.7-2.5,9.6,1.7c0.8,1.1,1.5,2.3,1.6,3.6c0.1,1.5-0.7,2.8-1.6,4.1c-2.7,4.1-6,7.7-9.4,11.3
		c0.7,0.8,2.1,0.7,3.1,0.3c1-0.4,1.8-1,2.5-1.7c2.3-1.9,4.3-4.1,6.2-6.4c1-1.1,1.8-2.4,2.6-3.6c1.6-2.5-2.5-4.1-3-6.8
		c-0.6-3.3,1.2-7.3,4.8-7.7c2.2-0.3,4.5,1,5.5,2.8c1.9,3.3-2.2,5.8-1.1,8.5c0.7,1.9,2.6,3.3,3.4,5.3c1.8,4.1,2.1,9.9-0.5,13.7
		c-2.9,4.3-10.6,5-12.9-0.4c-1-2.1-0.6-7,2.2-7.6c0.7-0.2,1.4-0.1,2.2-0.1c0.1,0.2,0.3,0.3,0.4,0.4s0.1,0.4-0.2,0.5
		c-1.3,0.8-2.4,2.2-1.5,3.8c1.1,1.8,3.7,1.3,5.1,0.1c1.4-1.2,2.2-3.1,2.4-4.9c0.2-2.5-0.8-5.1-2.8-6.5c-1.9-1.3-3.3,2.6-4.2,3.8
		c-1.8,2.5-3.9,4.8-5.9,7.1c-0.9,1-1.8,2-2.9,2.6c-1.1,0.7-2.5,1-3.8,1c-1.6-0.1-2.6-1.1-4-1.5c-2-0.4-6,2.6-8.5,3.2
		c-0.7,0.2-1.5,0.3-2.3,0.1c-1.8-0.4-2.8-2.4-3-4.2c-0.3-2.4,0-5.2,0.4-7.6c0.1-0.4,0.7-2.1,0-2.3c-0.4,0.9-0.6,1.7-1,2.6
		c-1.1,2.8-2.3,5.8-4.4,8c-2,2-5,3.3-7.9,3c-2.9-0.3-5.6-2.1-6.8-4.8c-0.4-1.1-0.6-2.2-0.7-3.3c-0.4-4.7,0.5-9,2.3-13.3
		c0.3-0.7-1.4,0.4-1.6,0.4c-4.1,1.8-14.6,0.2-14.4,6.5c0.1,1.1,0.4,2.4,1.3,3.1c1,0.6,2.5,0.8,3.2-0.3c0.4-0.7-0.4-2.6,0.4-2.8
		c0.9-0.4,1.8,1.1,2,1.7c0.4,1,0.4,2.1,0.1,3.2c-0.8,1.9-2.8,3.5-4.8,4c-3.3,0.8-7.1-0.5-9.7-2.7c-0.2-0.2-0.4-0.3-0.5-0.4
		c-3.6-3.3-4.1-8.8-1.8-13.1c1.5-2.8,3.8-4.8,7-5.2c2.9-0.4,5.9,1.8,8.7,2.4c2.9,0.6,5.9,1,8.8,0.4c3.1-0.5,5.6-3.3,7.9-5.4
		c1.3-1.2,1.1-1.3,2.9-0.3c0.1,0.1,0.3,0.2,0.4,0.3c0.2,0.2,0.2,0.4,0.1,0.6l0,0c-1.9,2.2-2.6,5.8-3.4,8.5c-0.7,2.5-1.3,5.1-1.4,7.7
		c-0.2,2.6-0.4,8.3,3.6,8c0.9-0.1,1.8-0.5,2.5-1.1c1.1-1.1,1.9-2.6,2.6-4.1C132.7,86.6,132.7,86.5,132.7,86.4"/>
	<path class="st1" d="M176.7,52.3c0.2-0.1,0.2-0.1,0.3-0.2c0.9-0.9,1.8-1.6,2.6-2.5c0.2-0.2,0.4-0.4,0.5-0.6
		c0.4-0.4,0.7-0.8,1.1-1.1c0.5-0.6,0.9-1.2,1.3-1.8c0.6-0.9,1.2-1.8,1.8-2.8c0.4-0.7,0.9-1.4,1.2-2.1c0.4-0.9,0.8-1.8,1.1-2.7
		c0.1-0.4,0.2-0.7,0.3-1c0-0.4,0-0.8-0.4-1.1c-0.2,0.1-0.3,0.2-0.4,0.4c-0.4,0.4-0.7,0.8-1.1,1.2c-0.2,0.2-0.4,0.4-0.6,0.6
		c-0.6,0.8-1.2,1.5-1.8,2.3c-0.6,0.8-1.3,1.6-1.9,2.5c-0.4,0.5-0.8,1.1-1.1,1.8c-0.4,0.6-0.9,1.3-1.1,1.9c-0.5,1.1-1,2.1-1.3,3.2
		c-0.2,0.6-0.3,1.1-0.3,1.8C176.6,52,176.6,52.1,176.7,52.3 M191.4,54.9c0.4-0.3,0.8-0.5,1.1-0.8c0.4-0.3,0.8-0.5,1.1-1
		c0.3-0.4,0.5-0.7,0.7-1.1c0.3-0.4,0.4-0.8,0.6-1.1c0.4-1,0.8-2,1.2-3c0.3-0.6,0.4-1.2,0.6-1.8c0.5-1.2,1.1-2.5,1.7-3.8
		c0.2-0.4,0.4-0.9,0.6-1.4c0.6-1.2,1.1-2.6,1.8-3.8c0-0.1,0.1-0.2,0.1-0.4c-0.7,0.3-1.1,0.7-1.6,1.1c-0.5,0.4-1,0.8-1.5,1.2
		c-0.4-0.2-0.5-0.4-0.5-0.7c0-0.3-0.1-0.6-0.1-0.9c0-0.1-0.1-0.2-0.2-0.3c-0.4,0-0.5,0.2-0.7,0.4c-0.3,0.3-0.5,0.6-0.8,1
		c-0.4,0.5-0.7,1.1-1.1,1.6c-0.7,1.1-1.5,2.3-2,3.5c-0.4,1-0.8,1.8-1.1,2.7c-0.4,0.8-0.6,1.5-0.9,2.4c-0.2,0.4-0.3,1-0.4,1.5
		c-0.1,0.9-0.2,1.8-0.3,2.7c-0.1,0.5,0.2,1.1,0.4,1.5c0.1,0.1,0.2,0.2,0.4,0.4C190.4,54.9,191.4,54.9,191.4,54.9z M194.9,58.5
		c-0.1,0.1-0.5,0.5-0.5,0.5c-2.7,2.6-7.3,3.2-9.4-0.4c-0.7-1.2-2.1,1.1-2.7,1.6c-3.1,2.3-7,1.5-9.6-1.1c-0.8-0.8-1.8-0.1-2.6,0.3
		c-1.9,0.8-4.3,2.3-6.5,2.3c-2.3-0.1-2.2-2.6-2-4.2c0.1-1.2,0.4-2.6,0.5-3.8c0.5-2.5,1.3-5,2.6-7.3c0.4-0.8,2.1-2.7,0.6-3.3
		c-0.7-0.3-1.4-0.1-2.1-0.4c-0.7-0.3-1.3-0.8-1.8-1.4c-1-1.5-0.9-3.4-0.6-5.2c0.4-2.2,1.1-4.5,2.6-6.3c1.1-1.2,2.6-2.1,4.3-2.2
		c0.5,0,1.8,0,2,0.6c0.3,1.1-1.2,2.6-1.7,3.5c-0.5,1.1-1.8,3.6-0.9,4.7c0.9,1.1,1.9-0.4,2.5-1.2c0.4-0.8,1.1-2,2.2-1.4
		c1.1,0.7,1.9,1.8,2.5,3c0.7,1.2-0.2,2-0.8,3.2c-1.3,2.2-2.6,4.4-3.7,6.7c-0.8,1.6-1.4,3.3-2,4.9c-0.5,1.5-1.5,3.3-1.1,4.9
		c0.3,1.5,3.3,0.7,4.1,0.3c1.1-0.7,0.4-1.8,0.4-2.9c-0.4-7,4.1-13.8,8.5-18.8c1.4-1.5,3.1-3.1,5.1-3.3c1.5-0.2,3.1,0.4,4.1,1.5
		c1.6,1.7,1.6,4.2,1.1,6.3c-0.4,1.5-1.1,2.9-1.9,4.2c-1.6,2.6-3.4,5.1-5.5,7.4c-0.5,0.6-1.1,1.3-1.8,1.8s-1.5,1-2.1,1.6
		c-0.4,0.4-0.7,0.8-0.8,1.3c0,0.6,0.4,1.2,1,1.4c0.5,0.3,1.2,0.2,1.8,0c1.4-0.5,2.4-1.6,3.3-2.7c1.8-2.4,2.5-5.2,3.6-7.9
		c1.1-2.6,2.4-5,3.7-7.4c0.6-1.1,1.3-2,2-3.1c0.7-1.1,1.1-2.3,2.1-3.2c1.1-0.9,2.6-1.3,3.8-0.6c1.4,0.9,1.2,2.5,2.1,3.5
		c0.7,0.8,0.9,0,1.2-0.6c0.4-0.7,0.6-1.4,1-2c0.2-0.4,0.4-0.6,0.6-0.8c0.4-0.2,0.7-0.1,1,0.1c0.5,0.4,1.1,0.9,1.7,1.3
		c0.5,0.4,1.1,0.8,1.3,1.4c0.2,0.5-0.3,1.1-0.5,1.6c-0.4,0.5-0.7,1.1-1,1.7c-0.7,1.2-1.3,2.5-1.8,3.8c-0.9,2-1.7,4.1-2.4,6.3
		c-0.6,1.8-1.7,4.2-1,6.2c1.4,3.7,8.5-3.3,9.7-4.6c2.6-2.5,4.5-5.6,5.2-9.1c1.6-7.5-3.8-15-10.8-17.1c-2.9-0.9-5.8-0.8-8.7-0.1
		c-2.9,0.7-5.7,1.5-8.4,2.8c-3.3,1.7-6.8,4.1-10.7,4.3c-5.8,0.4-10.4-6-7-11c1.1-1.6,2.6-2.4,4.4-2.6c0.4,0,1.4-0.1,1.1,0.5
		c-0.2,0.4-0.8,0.7-1.1,1c-0.4,0.4-0.6,0.7-0.8,1.1c-1.7,3.1,1,6.7,4.4,5.6c6.3-1.8,11.5-5.6,17.7-7.7c5.2-1.8,11-3.1,16.6-2.6
		c5,0.4,9.5,2.7,13,6.3c5.6,5.8,7.5,14.4,5.9,22.3c-0.5,2.6-1.5,5.2-2.8,7.5c-1.5,2.7-3.4,5.4-5.9,7.4c-2.7,2.2-6.1,3.6-9.5,4.3
		c-4.4,1-9,0.8-13.3-0.6C198.2,61.5,196,60.4,194.9,58.5C194.9,58.4,194.9,58.4,194.9,58.5"/>
	<path class="st1" d="M141.1,57.1c0.4,0.3,1.1,0.3,1.8-0.2c0.6-0.4,1.1-1,1.5-1.6c1.7-2.4,3-4.8,4-7.5c0.5-1.4,1.1-2.8,1.3-4.3
		c0.2-1.2,2.1-5.4,1.6-6.3c-0.5-1.1-3.9-0.4-3-1.5c-4.4,5.2-7.3,11.7-8.2,18.5C140.1,55.1,140.3,56.5,141.1,57.1 M117.4,61.7
		L117.4,61.7c-0.2,0-1,0.4-1,0.5c0,0.6-2.6,0.8-3,0.7c-1.1-0.1-2.1-0.4-3-1.1c-0.9-0.7-1.2-1.6-1.8-2.6c-0.4-0.7-0.7-0.3-1.1,0.3
		c-0.4,0.4-0.7,1-1.1,1.4c-2.4,2.5-6.6,2.1-9.2,0.2c-4.4-3.3-3.4-9.6-2.1-14.1c2.3-7.7,6.2-15.1,11.4-21.3c0.7-0.9,1.4-2,2.5-2.6
		c0.1-0.1,1,0.3,1.1,0.3c0.6,0.1,1.2,0.3,1.8,0.4c1.2,0.3,2.4,0.5,3.6,0.8c0.2,0,0.4,0.1,0.6,0.3c0.9,0.6-0.4,2.5-0.6,3.2
		c-0.9,2.2-1.8,4.5-2.6,6.7c-0.4,1.1-0.9,2.2-1.3,3.3c-0.5,1.5-2,1.9-3.3,1.1c-1.9-1.3-0.9-2.9-0.3-4.6c0.2-0.4,1.3-2.7,0.9-3.1
		c-0.4-0.3-1.9,2.9-2.1,3.3c-0.8,1.5-1.5,3-2.2,4.5c-1.3,3-2.6,6-3.5,9.2c-0.9,2.6-3.2,10.7,2.1,10.4c2.7-0.1,3.8-4.1,4.7-6.1
		c1.8-4.1,3.3-8.5,4.6-12.8c0.6-2.2,1.1-4.4,1.7-6.6c0.2-0.7,0.2-1.9,1-2.4c1.1-0.5,2.9,0.4,3.8,1.1c0.6,0.5,1,1.1,0.6,1.8
		c-0.4,1.1-0.9,2-1.3,3.1c-1.4,3.4-2.6,7-3.5,10.7c-0.5,1.9-2.7,8.1-0.7,9.6c0.9,0.6,2,0.5,2.9-0.1c1.4-1.1,1.7-4,1.9-5.6
		c0.4-2.6,0.8-5.2,1-7.7c0.4-3.3,1.1-6.8,0.8-10c-0.1-0.7-0.3-1.3,0.5-1.5c1-0.2,2.2,0.1,3.2,0.2c0.5,0,1.4,0,1.6,0.6
		c0.3,0.5,0.1,1.9,0.1,2.6c0,0.2,0,0.4,0,0.5c0.2,0,0.2-0.1,0.3-0.2c1.4-3.2,3.9-6.3,6.3-8.7c0.8-0.8,2-0.3,2.9,0
		c1.2,0.4,2.5,1,3.7,1.5c0.3,0.1,0.5,0.3,0.8,0.4c1,1-0.8,3.7-1.1,4.7c-1.3,3.8-2.6,7.7-3.9,11.4c-0.8,2.5-1.8,4.8-2.3,7.4
		c-0.2,1.1-1,6.7,1.8,5c0.6-0.4,1-1.1,1.1-1.8c0.3-1.8,0.1-3.4,0.4-5.2c0.6-4.1,2-8,4.1-11.6c1.6-2.7,3.4-5.5,6.3-7
		c1-0.4,2-0.7,3.1-0.5c0.6,0.1,1.2,0.4,1.8,0.9c0.6,0.6,0.7,1.1,1.1,0c0.6-1.5,1-3.2,1.6-4.7c0.4-0.8,0.7-1.6,1.1-2.4
		c0.4-0.8,1-1.7,1.2-2.6c0,0.1-1.1,0.4-1.3,0.5c-0.7,0.4-1.4,0.6-2.1,0.9c-8.3,3.3-17.3,2.5-26,1c-8.1-1.4-16.1-3.5-24.4-3.6
		C97,21.6,89.5,23.1,88,29.6c-0.5,2.3,0.1,4.9,1.8,6.6c1,1,2.3,1.5,3.6,1.6c1.5,0.1,2.6-0.6,4.1-0.9c0.4-0.1,0.6-0.1,1,0
		c0.7,0.3-1.9,2.6-2.3,2.7c-3,1.8-6.9,0.9-9.5-1c-2.7-1.8-4.5-4.8-5.1-8c-0.9-4.7,0.6-9.8,4.1-12.9c3-2.8,7-4.2,11.1-4.4
		c2.7-0.1,5.5,0.4,8.2,1.2c4.2,1.4,8.4,3.1,12.7,4.3c4.4,1.2,9,2.1,13.6,2.6c5.8,0.7,12.2,1.2,18,0c3-0.6,5.8-1.8,8.1-3.9
		c0.7-0.6,1.4-1.4,2.4-1.7c1.2-0.4,1.9,0.4,2.8,1.1c0.9,0.7,1.8,1.3,2.7,2c0.9,0.7,1.1,1.1,0.4,2.1c-4.1,6.5-7.4,13.4-9.9,20.7
		c-1,2.8-1.7,5.6-2.4,8.5c-0.2,1-0.4,2.2,0,3.1c0.6,1,1.9,1.1,2.8,0.4c0.6-0.6,0.9-1.6,1.1-2.4c0.5-2.2,1.1-4.4,1.7-6.6
		c0.1-0.4,0.2-0.7,0.4-1c0.2-0.3,0.6-0.4,1-0.4c0.4,0.1,0.5,0.4,0.5,0.8c0,0.4,0,0.6-0.2,1c-0.6,2.1-1.1,4.2-1.8,6.4
		c-0.5,1.8-1.2,4-2.8,5.2c-1.8,1.4-4.8,0.8-5.9-1.2c0.4,0.5-3.5,4.2-4.1,4.7c-2,1.6-5,2.5-7.4,1.3c-1.2-0.6-1.8-1.9-3.2-0.7
		c-2.1,1.9-5.7,2.1-7.7-0.3c-2.5-3.2-0.8-7.9,0.3-11.4c1.4-4.3,2.7-8.6,4.1-13c0.1-0.3,0.1-0.7-0.2-0.8c-0.3-0.1-0.4,0.2-0.5,0.4
		c-5,7-7.7,15.6-7.5,24.1c0,1,0.1,2-1,2.6c-0.7,0.4-1.5,0.4-2.3,0.3c-1-0.2-2-0.2-2.9-0.5C117.9,61.9,117.7,61.8,117.4,61.7"/>
	<path class="st1" d="M198.9,80.5L198.9,80.5L198.9,80.5L198.9,80.5z M198.7,80.9L198.7,80.9L198.7,80.9L198.7,80.9z M192.6,74.9
		c0,0.3,0,0.4,0,0.5c0.1,0.6,0.4,1.2,1.1,1.5c1.7,1,2.8-1,3.3-2.2c0.4-1.4,0.5-2.9,0.3-4.3c-0.2-1-0.9-3.3-2.3-2.6
		c-0.7,0.3-1.1,1.1-1.3,1.8C192.9,71.2,192.6,73.2,192.6,74.9 M215.8,94.9L215.8,94.9c-1.5,1.8-3.9,3-6.3,2.9
		c-0.7,0-1.5-0.2-2.1-0.5c-1.1-0.7-1.6-2.2-1.8-3.6c-0.3-2.8,0.6-5.6,1.7-8.2c1.2-3,2.7-5.9,4.2-8.7c0.8-1.4,1.5-2.9,2.3-4.3
		c0.4-0.9,1.3-2,1.1-3.1c-0.3-1.1-1.5-1.6-2.5-1.1c-0.6,0.3-1,0.9-1.3,1.4c-2.2,3.6-3.9,7.5-5,11.5c-0.6,2-1,4.1-1.3,6.3
		c-0.2,1.1-0.3,2.1-0.4,3.2c-0.1,1,0,0.7-0.2,1.8c-0.1,0.4-0.1,0.8-0.4,1.1c-0.6,0.6-1.7-0.6-2-1c-0.3-0.3-0.5-0.6-0.9-0.9
		c-0.6-0.4-1.4-0.6-2.1-1.1c-0.7-0.4-1.1-1-1.5-1.7c-0.3-0.8,0.1-1.5,0.2-2.3c0.2-1,0.4-1.8,0.5-2.7c0.1-0.4,0.4-1,0.3-1.4
		c-0.2-0.6-0.4-0.1-0.6,0.3c-0.9,2.3-1.7,4.5-3.3,6.4c-2.8,3.3-9.9,8-13.2,2.9c-0.8-1.2-1.1-2.6-1.4-4.1c-0.5-3.1-0.7-6.3-0.4-9.4
		c0.2-2.8,0.4-6.4,2-8.9c0.8-1.1,7.7-5.5,8.6-3.5c0.4,0.9-1,2.6-1.4,3.4c-0.7,1.4-1.2,2.8-1.7,4.2c-0.9,2.9-1.3,6-1.3,9.1
		c0,1.8,0.4,4.1,2.2,4.9c1.4,0.7,3.1,0.2,4.2-0.9c1-0.9,1.5-1.9,2-3.1c0.3-0.4,1-2.1,0.4-2.4c-0.4-0.2-0.9,0.4-1.2,0.4
		c-3.1,0.6-4.8-2.5-4.9-5c-0.2-2.5,0.4-5.2,1.4-7.5c0.6-1.3,1.4-2.6,2.6-3.4c1.1-0.9,2.6-1.3,4.1-0.9c1.8,0.5,2.2,2.1,2.6,3.7
		c0.1,0.4,0.8,3.9,1.1,3.8c0.8-0.1,1.1-1.9,1.3-2.5c0.2-0.6,0.4-1.2,0.6-1.8c0.4-0.9,0.9-1.7,1.7-2.3c0.6-0.4,1.5-0.5,2.3-0.5
		c0.2,0,0.3,0,0.4,0c1,0,1.8,0.8,1.9,1.8c1.9-1.8,3.7-3.2,6.7-2.7c2.1,0.4,3.6,2.2,4.2,4.1c1.1,4-1.9,6-3.6,9.2
		c-0.9,1.8-1.8,3.6-2.6,5.5c-0.7,1.8-2.3,4.5-1.8,6.4c0.5,2.4,4.4-2.4,4.9-2.8c0.8-0.5,1.8-0.8,2.6-0.5c1,0.4,1.6,1.2,2,2.1
		c1.3,2.6,1.6,5.2,1.6,8c0,9.8-3.3,20.3-11.7,26.1c-2.2,1.6-4.7,2.6-7.3,3.3c-2.6,0.8-5.5,1.2-8.2,1.4c-6.3,0.4-12.4-0.7-18.6-2
		c-13.3-2.7-26.5-6-39.5-10.1c-6.7-2.1-13.2-4.7-19.5-7.9c-2-1.1-4.1-2.2-6.1-3.3c-1.9-1-4.2-2.1-6.4-2.1c-4.1,0-7.8,2.8-9.5,6.3
		c-1.1,2.4-1.5,5.5-0.9,8c0.7,2.8,4,5.6,7,4.2c1.5-0.7,3.3-3.3,1.3-4.5c-0.4-0.2-1.2-0.6-0.5-1.1c1.3-0.9,3.3,0.5,4.1,1.7
		c1,1.6,1,4,0.4,5.6c-0.9,2.3-2.8,3.4-4.9,4.4c-2.6,1.2-5.6,1-8.4,0.3c-3.7-1-7-3.2-9-6.4c-4-6.1-2.7-14.3,0.7-20.3
		c3.2-5.5,9.1-7,15.1-7c5.6,0,11.2,1.4,16.5,3.3c3.4,1.2,6.8,2.7,10.1,4.2c5.6,2.6,11.4,4.5,17.1,7c5.5,2.5,11.4,4.1,17.3,5.7
		c4.5,1.2,9.1,2.2,13.7,3c10.1,1.7,23.2,2.9,31.5-4.3c3-2.6,5-6.1,6.6-9.7C214.7,100.7,216.7,97.3,215.8,94.9"/>
</g>
</svg>
